<svg width="197" height="43" viewBox="0 0 197 43" fill="none" xmlns="http://www.w3.org/2000/svg">
<g id="Raiffeisen_Bank_RU_Logo 1" clip-path="url(#clip0_169_72)">
<g id="Group">
<g id="Group_2">
<path id="Vector" d="M184.788 17.1386H188.838V12.47H192.582V17.1386H196.632V5.46714H192.582V9.58286H188.838V5.46714H184.788V17.1386ZM160.055 8.78429C160.914 8.23143 162.081 7.80143 163.062 7.80143C163.553 7.80143 164.719 7.86286 164.719 8.84571C164.719 9.82857 163.738 9.82857 163.369 9.82857H161.344V12.3471H163.124C163.676 12.3471 164.781 12.4086 164.781 13.33C164.781 13.6986 164.535 14.4357 163.124 14.4357C161.712 14.4357 160.792 14.0671 159.626 13.33L158.582 16.0943C160.792 17.3843 162.817 17.5071 163.799 17.5071C168.463 17.5071 169.015 14.8043 169.015 13.9443C169.015 12.7157 168.279 11.4871 166.683 11.0571C167.727 10.6271 168.34 9.58286 168.34 8.35429C168.34 5.65143 165.456 5.09857 163.738 5.09857C162.081 5.09857 160.239 5.59 159.012 6.26571L160.055 8.78429ZM151.279 3.99286C153.12 3.99286 155.023 3.25571 155.882 1.29L153.243 0.307143C152.936 1.65857 151.77 1.72 151.279 1.72C150.788 1.72 149.684 1.65857 149.377 0.307143L146.738 1.29C147.474 3.25571 149.438 3.99286 151.279 3.99286ZM144.897 5.46714V17.0771H148.886L152.936 10.6886V17.0771H156.987V5.46714H153.059L149.009 11.6714V5.46714H144.897ZM117.832 14.62V8.17C116.482 8.17 115.071 9.15286 115.071 11.4257C115.071 13.5757 116.482 14.62 117.832 14.62ZM121.453 8.17V14.62C122.803 14.62 124.215 13.6371 124.215 11.4257C124.215 9.15286 122.803 8.17 121.453 8.17ZM117.587 22.1757V17.3229C115.132 17.3229 111.143 16.34 111.143 11.3029C111.143 6.32714 115.132 5.28286 117.587 5.34429V0.245714H121.637V5.28286C124.092 5.28286 128.081 6.26571 128.081 11.2414C128.081 16.2786 124.092 17.2614 121.637 17.2614V22.1143H117.587V22.1757ZM99.5438 14.62V8.17C98.1936 8.17 96.7821 9.15286 96.7821 11.4257C96.7207 13.5757 98.1322 14.62 99.5438 14.62ZM103.103 8.17V14.62C104.453 14.62 105.865 13.6371 105.865 11.4257C105.865 9.15286 104.453 8.17 103.103 8.17ZM99.2369 22.1757V17.3229C96.7821 17.3229 92.793 16.34 92.793 11.3029C92.793 6.32714 96.7821 5.28286 99.2369 5.34429V0.245714H103.287V5.28286C105.742 5.28286 109.731 6.26571 109.731 11.2414C109.731 16.2786 105.742 17.2614 103.287 17.2614V22.1143H99.2369V22.1757ZM85.183 3.99286C87.0241 3.99286 88.9266 3.25571 89.7858 1.29L87.1469 0.307143C86.84 1.65857 85.674 1.72 85.183 1.72C84.6921 1.72 83.5874 1.65857 83.2192 0.307143L80.5802 1.29C81.4394 3.25571 83.3419 3.99286 85.183 3.99286ZM78.8005 5.46714V17.0771H82.7282L86.7787 10.6886V17.0771H90.8291V5.46714H86.9014L82.8509 11.6714V5.46714H78.8005ZM53.9453 3.68571V7.55571H55.4182C57.4435 7.55571 57.6276 6.32714 57.6276 5.59C57.6276 4.79143 57.3821 3.68571 55.4182 3.68571H54.1294H53.9453ZM49.5266 17.1386V0H56.4002C61.0643 0 62.3531 3.31714 62.3531 5.65143C62.3531 7.98571 61.003 11.3029 56.4002 11.3029H53.884V17.1386H49.5266ZM142.381 5.46714V17.0771H138.33V15.7871H138.269C137.532 16.9543 136.121 17.4457 134.832 17.4457C131.457 17.4457 129.063 14.5586 129.063 11.2414C129.063 7.92428 131.395 5.03714 134.832 5.03714C136.121 5.03714 137.532 5.52857 138.391 6.57286V5.46714H142.381ZM135.814 8.66143C134.157 8.66143 133.175 9.89 133.175 11.3029C133.175 12.7771 134.157 13.8829 135.814 13.8829C137.471 13.8829 138.453 12.7157 138.453 11.3029C138.453 9.89 137.471 8.66143 135.814 8.66143ZM76.2843 5.46714V17.0771H72.2338V15.7871H72.1724C71.436 16.9543 70.0245 17.4457 68.7357 17.4457C65.3603 17.4457 62.9668 14.5586 62.9668 11.2414C62.9668 7.92428 65.2989 5.03714 68.7357 5.03714C70.0245 5.03714 71.436 5.52857 72.2952 6.57286V5.46714H76.2843ZM69.7176 8.66143C68.0606 8.66143 67.0787 9.89 67.0787 11.3029C67.0787 12.7771 68.0606 13.8829 69.7176 13.8829C71.3746 13.8829 72.3565 12.7157 72.3565 11.3029C72.3565 9.89 71.3746 8.66143 69.7176 8.66143ZM182.762 11.7943V12.2243H174.232C174.232 13.8829 175.091 14.8043 176.748 14.8043C177.607 14.8043 178.221 14.4971 178.712 13.76H182.64C181.965 16.5243 179.448 17.7529 176.81 17.7529C173.005 17.7529 170.181 15.6029 170.181 11.5486C170.181 7.67857 172.82 5.34429 176.503 5.34429C180.492 5.34429 182.762 7.80143 182.762 11.7943ZM174.293 9.82857H179.019C178.835 8.72286 177.791 7.98571 176.687 7.98571C175.521 7.98571 174.539 8.66143 174.293 9.82857ZM56.0319 35.69H54.8045L54.1908 39.3143H55.3569C58.0572 39.3143 58.5481 38.5771 58.7322 37.5943C58.9164 36.4886 58.6709 35.69 56.0319 35.69ZM63.3964 37.5943C63.2123 38.7614 62.8441 39.9286 61.9849 40.7271C60.1438 42.57 57.3821 42.6929 55.6637 42.7543H48.8516L51.736 25.6771H63.3964L62.8441 29.0557H55.7865L55.2341 32.4957H57.2594C58.7936 32.4957 60.6961 32.68 62.0463 33.8471C63.1509 34.7071 63.7033 35.9971 63.3964 37.5943ZM75.6706 39.8057H69.2266L67.5083 42.7543H62.5372L72.2952 25.6771H77.3889L81.3167 42.7543H76.3456L75.6706 39.8057ZM74.9955 36.3657L74.0136 30.8986H73.9522L71.1291 36.3657H74.9955ZM107.399 25.6771H102.674L99.8506 42.7543H104.515L105.742 35.3214H105.804L110.59 42.7543H116.666L110.345 33.7857L118.814 25.6771H113.045L106.233 32.7414H106.172L107.399 25.6771ZM89.3562 25.6771L88.3129 32.0657H94.5114L95.5547 25.6771H100.096L97.3344 42.7543H92.793L93.959 35.3829H87.7606L86.5946 42.7543H82.0531L84.8148 25.6771H89.3562Z" fill="black"/>
</g>
<g id="Group_3">
<path id="Vector_2" d="M41.3021 1.41284H1.41113V41.3414H41.3021V1.41284Z" fill="#FAEB00"/>
<path id="Vector_3" d="M1.41153 1.41286H41.3025V41.3414H1.41153V1.41286ZM0 42.7543H42.714V0H0V42.7543Z" fill="black"/>
<g id="Group_4">
<path id="Vector_4" d="M21.3572 26.2302L9.08306 38.5159L4.23477 33.663L16.5089 21.3773L13.9313 18.7973V13.7602L12.1516 11.9787V16.4016L10.6173 17.9373L4.35751 11.733L2.82324 13.2687C2.82324 12.1016 3.06873 8.72301 5.89178 5.95872C8.96031 3.01015 12.2743 4.36158 13.4404 5.4673L19.7002 11.6716L18.1045 13.2687L21.3572 16.5244L24.6098 13.2687L23.0142 11.6716L29.274 5.40587C30.4401 4.30015 33.7541 2.94872 36.8226 5.8973C39.6457 8.72301 39.8912 12.0402 39.8912 13.2073L38.3569 11.6716L32.0971 17.9373L30.5628 16.4016V11.9787L28.7831 13.7602V18.7973L26.2055 21.3773L38.4796 33.663L33.6313 38.5159L21.3572 26.2302Z" fill="black"/>
</g>
</g>
</g>
</g>
<defs>
<clipPath id="clip0_169_72">
<rect width="197" height="43" fill="white"/>
</clipPath>
</defs>
</svg>
