<svg width="196" height="40" viewBox="0 0 196 40" fill="none" xmlns="http://www.w3.org/2000/svg">
<g id="Logo_alfa-bank 1" clip-path="url(#clip0_114_5049)">
<g id="_____2">
<g id="_____1">
<g id="Group">
<g id="Group_2">
<g id="Group_3">
<path id="Vector" d="M25.9926 40.0016V34.5409H0V40.0016H25.9926ZM72.8717 7.15521C69.1597 7.66488 66.6247 9.18479 65.2667 11.7149C63.5828 14.6819 63.1844 17.5852 64.0717 20.4248C65.6108 24.9936 68.5441 27.3509 72.8717 27.4965V34.5682H77.6791V27.4965C81.9885 27.3327 84.9128 24.9754 86.4519 20.4248C87.3392 17.5852 86.9408 14.6819 85.2569 11.7149C83.8988 9.18479 81.3729 7.66488 77.6791 7.15521V0.138148H72.8717V7.15521ZM72.8717 11.9061V22.8549C71.061 22.4544 69.7935 21.1893 69.0692 19.0596C68.5803 17.476 68.8066 15.8651 69.7482 14.2269C70.3457 13.0801 71.3869 12.3065 72.8717 11.9061ZM77.6791 11.9061C79.1638 12.3065 80.2141 13.0801 80.8297 14.2269C81.7713 15.8651 81.9976 17.476 81.5087 19.0596C80.7663 21.1893 79.4898 22.4544 77.6791 22.8549V11.9061ZM51.2791 7.89241H46.3902V26.9504H56.684C59.2733 26.6046 60.9029 25.294 61.5729 23.0187L61.6272 17.9948C61.1021 15.2826 59.4272 13.7809 56.6025 13.4897H51.2791V7.89241ZM51.2247 17.831H55.3531C57.3811 19.269 57.3811 20.7707 55.3531 22.3361H51.2247V17.831ZM33.2988 12.1791H37.8074V26.9777H42.9408V7.59207H28.6272V20.7798C28.1745 21.9447 27.3054 22.3725 26.0198 22.063V26.9231L29.1161 26.5682C30.963 26.1131 32.1037 25.0938 32.5383 23.5101C32.9548 21.9265 33.0996 20.9891 32.9729 20.6979L33.2988 12.1791ZM15.4543 0.629614C13.9696 -0.153093 12.4124 -0.198599 10.7827 0.493096C9.02635 2.84122 5.60412 11.5511 0.516048 26.6228H5.73087L7.74075 21.6535H17.763L19.5556 26.9504H24.9877C22.6157 18.0858 19.4379 9.3122 15.4543 0.629614ZM12.7383 6.25419L16.079 16.4931H9.23458L12.7383 6.25419ZM182.193 7.94702H177.358V26.7593H182.084V19.1415L189.119 26.6228H195.556L186.837 16.6569L194.687 7.97432H188.548L182.193 15.046V7.94702ZM162.148 7.94702H157.314V26.7593H162.04V19.4146H169.047V26.7593H173.773V7.94702H168.938V14.773H168.857H162.23L162.148 7.94702ZM140.366 14.9641C138.229 15.7832 137.115 17.1757 137.025 19.1415C136.5 23.2553 137.84 25.7309 141.045 26.5682C143.905 27.7513 146.495 27.1962 148.812 24.9026C150.261 26.8139 152.217 27.4237 154.679 26.732V22.6091L153.131 21.4624V12.3429C152.715 9.9948 151.067 8.36567 148.188 7.45555C146.142 6.81846 144.195 6.81846 142.348 7.45555C139.361 8.67512 137.713 10.5682 137.405 13.1347H142.403C142.547 12.3338 142.982 11.9061 143.706 11.8515H146.83C147.789 12.3611 148.179 13.1893 147.998 14.3361C145.01 14.0631 142.466 14.2724 140.366 14.9641ZM143.027 18.7866H148.269V20.8617C147.798 21.699 147.264 22.2542 146.667 22.5272C145.345 23.2735 144.132 23.2735 143.027 22.5272C141.561 21.1438 141.561 19.897 143.027 18.7866ZM120.728 5.29855H133.331V0.138148H115.106V26.732H128.551C131.955 26.0767 133.956 24.3111 134.553 21.4351L134.499 15.5375C134.101 13.1347 132.208 11.5784 128.822 10.8685C126.305 10.5227 123.608 10.3588 120.728 10.377V5.29855ZM120.484 15.2371L126.84 15.2098C130.624 17.5033 130.624 19.724 126.84 21.8719H120.484V15.2371ZM104.894 12.3429C104.477 9.9948 102.83 8.36567 99.9507 7.45555C97.9046 6.81846 95.9581 6.81846 94.1112 7.45555C91.1235 8.67512 89.4758 10.5682 89.168 13.1347H94.1655C94.3104 12.3338 94.7449 11.9061 95.4692 11.8515H98.5927C99.5523 12.3611 99.9416 13.1893 99.7606 14.3361C96.7729 14.0631 94.2289 14.2724 92.1285 14.9641C89.9918 15.7832 88.8783 17.1757 88.7877 19.1415C88.2626 23.2553 89.6025 25.7309 92.8075 26.5682C95.6684 27.7513 98.2577 27.1962 100.575 24.9026C102.024 26.8139 103.98 27.4237 106.442 26.732V22.6091L104.894 21.4624V12.3429ZM100.032 20.8617C99.5614 21.699 99.0272 22.2542 98.4297 22.5272C97.1079 23.2735 95.8947 23.2735 94.7902 22.5272C93.3235 21.1438 93.3235 19.897 94.7902 18.7866H100.032V20.8617Z" fill="white"/>
</g>
</g>
</g>
</g>
</g>
</g>
<defs>
<clipPath id="clip0_114_5049">
<rect width="195.556" height="40" fill="white"/>
</clipPath>
</defs>
</svg>
