<svg width="241" height="40" viewBox="0 0 241 40" fill="none" xmlns="http://www.w3.org/2000/svg">
<g id="Sberbank_Logo_2020 (1) 1">
<g id="surface1">
<path id="Vector" d="M107.76 11.6028L112.782 7.86523H95.9648V30.2566H112.782V26.5159H100.769V20.8009H111.037V17.0633H100.769V11.6028H107.76Z" fill="white"/>
<path id="Vector_2" d="M83.2587 16.5852H77.4326V11.6028H86.7531L91.7781 7.86523H72.6289V30.2566H82.6384C88.2463 30.2566 91.4851 27.6893 91.4851 23.2191C91.4851 18.9321 88.5736 16.5852 83.2587 16.5852ZM82.4576 26.5159H77.4326V20.3228H82.4576C85.5156 20.3228 86.9339 21.3503 86.9339 23.4395C86.9339 25.5287 85.4065 26.5159 82.4576 26.5159Z" fill="white"/>
<path id="Vector_3" d="M126.398 7.86523H117.262V30.2566H122.065V23.9145H126.436C132.259 23.9145 135.9 20.8381 135.9 15.8899C135.9 10.9416 132.259 7.86523 126.398 7.86523ZM126.289 20.1769H122.031V11.6028H126.289C129.385 11.6028 131.059 13.1426 131.059 15.8899C131.059 18.6372 129.385 20.1769 126.289 20.1769Z" fill="white"/>
<path id="Vector_4" d="M64.3992 25.417C63.1274 26.1154 61.7059 26.4817 60.2502 26.4817C55.9172 26.4817 52.7875 23.365 52.7875 19.078C52.7875 14.7909 55.9172 11.6742 60.2502 11.6742C61.815 11.6401 63.3456 12.1523 64.6174 13.068L68.0776 10.5039L67.8594 10.2835C65.8581 8.48608 63.1617 7.57031 60.1037 7.57031C56.7932 7.57031 53.7695 8.70649 51.5874 10.7584C49.4022 12.8849 48.1647 15.8526 48.2364 18.9321C48.1989 22.0457 49.4022 25.0507 51.5874 27.2485C53.8786 29.4122 56.9366 30.6229 60.0694 30.5484C63.5264 30.5484 66.547 29.3377 68.5857 27.1398L65.4934 24.8302L64.3992 25.417Z" fill="white"/>
<path id="Vector_5" d="M193.674 7.90249V30.2907H198.478V21.1299H208.709V30.2907H213.516V7.90249H208.709V17.1005H198.478V7.90249H193.674ZM185.411 30.2907H190.47L181.078 7.90249H176.199L166.626 30.2907H171.467L173.397 25.7833H183.59L185.411 30.2907ZM174.852 22.0457L178.565 13.068L182.06 22.0457H174.852ZM224.292 21.2417H227.275L234.629 30.2566H240.816L230.988 18.6744L239.579 7.86523H234.083L226.948 17.4668H224.292V7.86523H219.485V30.2566H224.292V21.2417ZM150.753 16.6225V11.6401H163.312V7.90249H145.946V30.2907H155.959C161.564 30.2907 164.806 27.7266 164.806 23.2564C164.806 18.9693 161.894 16.6225 156.576 16.6225H150.753ZM150.753 26.5532V20.3601H155.778C158.833 20.3601 160.254 21.3876 160.254 23.4768C160.254 25.566 158.761 26.5904 155.778 26.5904H150.753V26.5532Z" fill="white"/>
<path id="Vector_6" d="M33.2017 7.71924C34.0746 8.85541 34.804 10.1002 35.4212 11.4196L18.6037 23.9144L11.54 19.4442V14.0955L18.5663 18.5284L33.2017 7.71924Z" fill="white"/>
<path id="Vector_7" d="M4.36752 19.078C4.36752 18.8204 4.36752 18.6031 4.40493 18.3454L0.146782 18.125C0.146782 18.4199 0.109375 18.749 0.109375 19.0408C0.109375 24.1722 2.18546 28.8255 5.53337 32.1968L8.55398 29.1546C5.96979 26.5904 4.36752 23.036 4.36752 19.078Z" fill="white"/>
<path id="Vector_8" d="M18.5664 4.78582C18.822 4.78582 19.0402 4.78582 19.2958 4.82308L19.514 0.53603C19.221 0.53603 18.8937 0.498779 18.6038 0.498779C13.5071 0.498779 8.88423 2.58798 5.5332 5.95925L8.55381 9.00147C11.1037 6.40006 14.6698 4.78582 18.5664 4.78582Z" fill="white"/>
<path id="Vector_9" d="M18.5668 33.3702C18.3112 33.3702 18.093 33.3702 17.8373 33.3329L17.6191 37.62C17.9122 37.62 18.2395 37.6572 18.5294 37.6572C23.6261 37.6572 28.252 35.568 31.6 32.1968L28.5794 29.1545C26.0295 31.7932 22.4976 33.3702 18.5668 33.3702Z" fill="white"/>
<path id="Vector_10" d="M26.5746 7.27848L30.1781 4.60257C27.011 2.03841 22.9711 0.461426 18.5664 0.461426V4.74847C21.5527 4.78572 24.3177 5.70149 26.5746 7.27848Z" fill="white"/>
<path id="Vector_11" d="M37.0613 19.0779C37.0613 17.9417 36.9522 16.8428 36.7683 15.7439L32.8 18.7116C32.8 18.8203 32.8 18.9693 32.8 19.0779C32.8 23.2936 30.9796 27.0684 28.1055 29.6698L30.9796 32.8579C34.6953 29.4867 37.0613 24.5384 37.0613 19.0779Z" fill="white"/>
<path id="Vector_12" d="M18.5667 33.3702C14.3803 33.3702 10.6302 31.5387 8.04602 28.6423L4.87891 31.5387C8.26423 35.3135 13.1427 37.6572 18.5667 37.6572V33.3702Z" fill="white"/>
<path id="Vector_13" d="M9.0652 8.48597L6.18799 5.29785C2.43795 8.70638 0.109375 13.6174 0.109375 19.0779H4.36752C4.36752 14.8995 6.18799 11.0905 9.0652 8.48597Z" fill="white"/>
</g>
</g>
</svg>
