<svg width="228" height="40" viewBox="0 0 228 40" fill="none" xmlns="http://www.w3.org/2000/svg">
<g id="Kapital_Bank_logo 1" clip-path="url(#clip0_114_5067)">
<g id="Clip path group">
<mask id="mask0_114_5067" style="mask-type:luminance" maskUnits="userSpaceOnUse" x="0" y="0" width="228" height="40">
<g id="a">
<path id="Vector" d="M227.317 0H0V40H227.317V0Z" fill="white"/>
</g>
</mask>
<g mask="url(#mask0_114_5067)">
<g id="Group">
<path id="Vector_2" d="M0 39.9954H40.359V39.9887L20.1846 19.9932L0 39.9954Z" fill="white"/>
<path id="Vector_3" d="M0.00488281 0V39.9944L20.185 19.9932L0.00488281 0Z" fill="#F0E6E8"/>
<path id="Vector_4" d="M56.169 19.7882L67.3973 31.4418V31.7042H61.9656L52.2057 21.4699V31.7042H47.8037V8.59766H52.2V18.3679L61.0654 8.59766H66.5278V8.72381L56.169 19.7882Z" fill="white"/>
<path id="Vector_5" d="M79.06 24.0831C79.06 22.0421 77.654 19.8435 75.407 19.8435C73.16 19.8435 71.7858 22.0455 71.7858 24.0831C71.7858 26.1207 73.1623 28.3633 75.4116 28.3633C77.6609 28.3633 79.0645 26.1331 79.0645 24.0831M82.9391 31.6997H78.6201V30.3052H78.5588C78.0529 30.9083 77.417 31.3914 76.6978 31.7188C75.9787 32.0463 75.1947 32.21 74.4034 32.1976C69.9071 32.1976 67.3418 28.1426 67.3418 24.0234C67.3418 19.9966 69.9377 16.0025 74.3409 16.0025C75.1507 16.0004 75.9517 16.1703 76.6898 16.5005C77.4279 16.8308 78.0861 17.3139 78.6201 17.9173V16.4924H82.9391V31.6997Z" fill="white"/>
<path id="Vector_6" d="M98.0551 24.0832C98.0551 22.0422 96.681 19.8435 94.4305 19.8435C92.1801 19.8435 90.8071 22.0422 90.8071 24.0832C90.8071 26.1242 92.1835 28.3634 94.4305 28.3634C96.6776 28.3634 98.0551 26.1332 98.0551 24.0832ZM91.2447 17.8881C91.7764 17.292 92.4303 16.8152 93.1627 16.4893C93.8951 16.1634 94.6892 15.9959 95.4921 15.9981C99.8361 15.9981 102.492 20.026 102.492 24.0202C102.492 28.1664 99.9304 32.1954 95.3977 32.1954C94.6121 32.2107 93.8336 32.0449 93.1236 31.7113C92.4135 31.3776 91.7913 30.8851 91.306 30.2726H91.2447V39.8086H86.8711V16.4925H91.2447V17.8881Z" fill="white"/>
<path id="Vector_7" d="M109.892 31.7021H105.517V16.496H109.892V31.7021ZM110.299 10.124C110.298 10.6322 110.146 11.129 109.861 11.5515C109.576 11.974 109.171 12.3033 108.697 12.4977C108.223 12.6922 107.702 12.743 107.199 12.6439C106.696 12.5448 106.234 12.3001 105.871 11.9408C105.509 11.5815 105.262 11.1237 105.161 10.6253C105.061 10.1269 105.112 9.61018 105.308 9.14053C105.504 8.67088 105.836 8.26931 106.262 7.98665C106.689 7.70399 107.19 7.55295 107.703 7.5525C108.044 7.55146 108.382 7.61725 108.697 7.7461C109.013 7.87495 109.299 8.06426 109.54 8.30324C109.782 8.54222 109.973 8.82614 110.103 9.1386C110.233 9.45107 110.3 9.78594 110.299 10.124Z" fill="white"/>
<path id="Vector_8" d="M118.889 31.7031H114.521V20.1566H113.02V16.5003H114.521V11.364H118.892V16.5003H121.581V20.1566H118.892L118.889 31.7031Z" fill="white"/>
<path id="Vector_9" d="M133.948 24.0831C133.948 22.0421 132.542 19.8435 130.294 19.8435C128.046 19.8435 126.668 22.0421 126.668 24.0831C126.668 26.1241 128.043 28.3633 130.294 28.3633C132.544 28.3633 133.948 26.1331 133.948 24.0831ZM137.824 31.6997H133.505V30.3052H133.444C132.939 30.9082 132.303 31.3912 131.584 31.7186C130.865 32.0461 130.081 32.2098 129.29 32.1976C124.791 32.1976 122.229 28.1426 122.229 24.0234C122.229 19.9966 124.824 16.0025 129.228 16.0025C130.037 16.0004 130.838 16.1703 131.575 16.5006C132.313 16.8309 132.971 17.314 133.505 17.9173V16.4924H137.824V31.6997Z" fill="white"/>
<path id="Vector_10" d="M146.131 5.45166H141.756V31.7031H146.131V5.45166Z" fill="white"/>
<path id="Vector_11" d="M186.644 24.0831C186.644 22.0421 185.238 19.8435 182.991 19.8435C180.744 19.8435 179.367 22.0421 179.367 24.0831C179.367 26.1241 180.741 28.3634 182.991 28.3634C185.24 28.3634 186.644 26.1331 186.644 24.0831ZM190.518 31.6997H186.207V30.3052H186.146C185.639 30.9078 185.003 31.3906 184.284 31.718C183.565 32.0454 182.782 32.2093 181.99 32.1976C177.489 32.1976 174.929 28.1426 174.929 24.0234C174.929 19.9966 177.524 16.0025 181.927 16.0025C182.737 16.0003 183.538 16.17 184.276 16.5003C185.015 16.8306 185.673 17.3138 186.207 17.9173V16.4924H190.518V31.6997Z" fill="white"/>
<path id="Vector_12" d="M198.827 17.8948H198.89C199.341 17.2703 199.944 16.7692 200.643 16.4386C201.342 16.1081 202.114 15.9588 202.888 16.0047C207.014 16.0047 208.199 18.8883 208.199 22.4161V31.702H203.824V23.6517C203.824 21.8258 203.919 19.4762 201.453 19.4762C198.86 19.4762 198.827 22.3541 198.827 24.1822V31.702H194.453V16.4958H198.827V17.8948Z" fill="white"/>
<path id="Vector_13" d="M216.473 22.0748H216.534L221.127 16.5014H226.81L220.339 23.191L227.307 31.7008H221.559L216.53 25.2343H216.473V31.7008H212.096V5.44946H216.473V22.0748Z" fill="white"/>
<path id="Vector_14" d="M160.78 28.0503H163.654C166.122 28.0503 168.249 27.7383 168.249 24.7049C168.249 21.6716 165.748 21.5511 163.435 21.5511H160.78V28.0503ZM160.78 18.0796H163.25C165.498 18.0796 166.59 17.4319 166.59 15.0125C166.59 12.6324 165.215 12.0118 163.278 12.0118H160.778L160.78 18.0796ZM156.188 8.35669H163.812C168.182 8.35669 170.871 10.062 170.871 14.7072C170.922 15.5699 170.76 16.4318 170.401 17.2192C170.042 18.0067 169.496 18.6961 168.809 19.2285C171.59 19.7218 172.836 22.5063 172.836 25.0789C172.836 29.6599 169.59 31.7031 165.31 31.7031H156.188V8.35669Z" fill="white"/>
<g id="Group_2">
<g id="Clip path group_2">
<mask id="mask1_114_5067" style="mask-type:luminance" maskUnits="userSpaceOnUse" x="0" y="0" width="41" height="21">
<g id="b">
<path id="Vector_15" fill-rule="evenodd" clip-rule="evenodd" d="M40.3605 0.00341797H0.00488281V0.0101553L20.185 20.0057L40.3605 0.00341797Z" fill="white"/>
</g>
</mask>
<g mask="url(#mask1_114_5067)">
<g id="Group_3">
<path id="Vector_16" d="M40.3605 -0.000244141H0.00488281V20.0043H40.3605V-0.000244141Z" fill="#C9C9C9"/>
</g>
</g>
</g>
</g>
</g>
</g>
</g>
</g>
<defs>
<clipPath id="clip0_114_5067">
<rect width="227.317" height="40" fill="white"/>
</clipPath>
</defs>
</svg>
