<svg width="180" height="40" viewBox="0 0 180 40" fill="none" xmlns="http://www.w3.org/2000/svg">
<g id="OZON_2019 1" clip-path="url(#clip0_114_5065)">
<path id="Vector" fill-rule="evenodd" clip-rule="evenodd" d="M21.6388 0.109059C17.5921 -0.323685 13.5128 0.526598 9.96144 2.54303C6.4101 4.55947 3.56112 7.64307 1.80608 11.37C0.0510511 15.0969 -0.523873 19.2842 0.160336 23.3563C0.844545 27.4284 2.7543 31.1854 5.6271 34.1109C8.4999 37.0364 12.1947 38.9868 16.2037 39.694C20.2127 40.4012 24.339 39.8305 28.0155 38.0603C31.692 36.2902 34.7383 33.4074 36.7355 29.8083C38.7327 26.2092 39.5828 22.0705 39.1691 17.961C38.7138 13.393 36.722 9.12383 33.529 5.87227C30.336 2.62071 26.1369 0.585403 21.6388 0.109059ZM21.0006 30.5756C18.8242 30.872 16.611 30.4686 14.672 29.4221C12.7331 28.3756 11.1659 26.7386 10.1907 24.7412C9.21556 22.7438 8.8814 20.4864 9.23523 18.2862C9.58906 16.0861 10.6131 14.0538 12.1634 12.4749C13.7137 10.8961 15.7124 9.85017 17.8785 9.48408C20.0446 9.11799 22.2692 9.45017 24.2397 10.4339C26.2103 11.4177 27.8276 13.0036 28.8645 14.9687C29.9014 16.9338 30.3057 19.1794 30.0205 21.3898C29.7212 23.7148 28.6754 25.8748 27.0448 27.5354C25.4142 29.1959 23.2898 30.2645 21.0006 30.5756ZM49.7035 0.900087C49.0204 0.901747 48.3462 1.05799 47.7301 1.35746C47.1139 1.65692 46.5713 2.09207 46.1417 2.63123C45.712 3.1704 45.4062 3.80002 45.2464 4.47429C45.0867 5.14855 45.077 5.85049 45.2181 6.52904C45.6503 8.72731 47.6728 10.2293 49.8761 10.2293H62.6621L42.7641 36.9619C42.617 37.1593 42.5269 37.3944 42.5039 37.6408C42.481 37.8872 42.5261 38.1353 42.6342 38.3571C42.7423 38.579 42.9092 38.7659 43.1161 38.8968C43.323 39.0278 43.5617 39.0977 43.8055 39.0987H75.0174C77.2192 39.0987 79.2432 37.597 79.6754 35.3984C79.8165 34.7199 79.8069 34.0181 79.6473 33.3439C79.4876 32.6697 79.182 32.0401 78.7526 31.5009C78.3231 30.9617 77.7807 30.5265 77.1648 30.2268C76.5489 29.9272 75.8749 29.7707 75.1919 29.7687H59.613L79.4958 3.05682C79.6444 2.85755 79.7353 2.62018 79.7585 2.37136C79.7816 2.12253 79.736 1.87208 79.6267 1.64811C79.5174 1.42414 79.3488 1.23551 79.1399 1.10338C78.9309 0.971251 78.6898 0.900855 78.4436 0.900087H49.7035ZM174.424 1.0077C173.391 1.25715 172.472 1.85714 171.821 2.70848C171.169 3.55982 170.823 4.61152 170.839 5.68968V21.2225L146.047 1.19347C145.853 1.03679 145.619 0.939016 145.372 0.911391C145.125 0.883766 144.876 0.927413 144.652 1.03731C144.429 1.14721 144.241 1.31889 144.109 1.53261C143.978 1.74633 143.908 1.9934 143.909 2.2454V34.3174C143.892 35.3955 144.238 36.4473 144.89 37.2986C145.542 38.15 146.461 38.75 147.494 38.9994C148.165 39.1492 148.861 39.1443 149.529 38.9849C150.198 38.8254 150.823 38.5156 151.359 38.0782C151.894 37.6408 152.325 37.087 152.622 36.4576C152.918 35.8283 153.071 35.1395 153.07 34.442V18.7747L177.863 38.8041C178.057 38.9607 178.291 39.0584 178.538 39.086C178.784 39.1136 179.034 39.07 179.257 38.9601C179.48 38.8503 179.668 38.6787 179.8 38.4651C179.931 38.2514 180.001 38.0045 180 37.7526V5.56357C180.001 4.86623 179.847 4.17761 179.551 3.54849C179.255 2.91937 178.823 2.3658 178.288 1.92857C177.753 1.49135 177.128 1.18163 176.459 1.02225C175.791 0.862873 175.095 0.857899 174.424 1.0077ZM109.872 9.33634C120.359 9.33634 128.194 14.9623 128.194 19.9947C128.194 25.027 120.359 30.653 109.872 30.653C99.3859 30.653 91.5506 25.027 91.5506 19.9947C91.5506 14.9623 99.3859 9.33634 109.872 9.33634ZM109.872 0.00748969C94.6937 0.00748969 82.3893 8.95612 82.3893 19.9947C82.3893 31.0332 94.6937 39.9818 109.872 39.9818C125.051 39.9818 137.355 31.0332 137.355 19.9947C137.355 8.95612 125.051 0.00748969 109.872 0.00748969Z" fill="white"/>
</g>
<defs>
<clipPath id="clip0_114_5065">
<rect width="180" height="40" fill="white"/>
</clipPath>
</defs>
</svg>
