<svg width="226" height="53" viewBox="0 0 226 53" fill="none" xmlns="http://www.w3.org/2000/svg">
<g id="Tinkoff_Bank_logo 1">
<path id="Vector" d="M23.6831 39.4552C23.6831 39.4552 24.3363 39.1891 24.3957 38.997L24.3067 38.7812C24.2458 38.6392 24.2532 38.4855 24.3735 38.4027L25.0772 37.9164L26.2546 38.1425C26.2546 38.1425 26.0408 37.8765 26.0616 37.5217L24.9391 37.2852L23.8791 37.9282C23.6941 38.0648 23.5604 38.2591 23.4993 38.4801C23.4382 38.7012 23.4533 38.9362 23.542 39.1478L23.6831 39.4567L23.6831 39.4552ZM32.0074 42.5182C32.2168 42.5093 32.4514 42.5063 32.7052 42.5063C32.7052 42.5063 33.311 40.7398 33.3451 40.6837C32.8952 40.4747 32.4562 40.2433 32.0297 39.9903C32.2093 40.2594 32.6458 40.5654 32.5597 40.8019L32.0074 42.5182ZM32.3682 21.9096C31.4685 22.7995 30.6059 23.1292 29.8353 23.2061C29.6943 23.2213 29.5525 23.2292 29.4107 23.2297H29.3914C29.1079 23.2297 28.8252 23.1999 28.548 23.141C28.4975 23.3406 28.4337 23.7589 28.6163 24.1551C28.7796 24.5143 29.1107 24.7818 29.5948 24.9607L29.7581 25.0243L29.7596 25.1987C29.7596 25.2505 29.7982 26.3828 31.0364 26.6977C31.2384 26.4907 31.4225 26.303 31.5561 26.1448C31.3037 25.5521 31.4373 24.946 31.8041 24.6488C31.7892 24.7124 31.6259 26.198 32.821 26.7509L33.0185 26.844L32.9591 27.0524C32.9398 27.116 32.5419 28.5543 33.9895 29.0894L34.2448 29.187L34.1305 29.4339C34.1053 29.4886 33.5382 30.7939 34.8743 31.5359H37.771V29.2402C36.7406 29.1146 36.3056 28.2882 36.1927 27.7028C35.7131 27.6215 35.3435 27.4161 35.0896 27.0805C34.4809 26.2822 35.0035 25.5505 35.0109 25.5106C35.0094 25.5165 35.0109 26.294 35.492 26.776C35.731 27.0066 36.0131 27.1869 36.4422 27.2268L36.6515 27.2461L36.6694 27.4604C36.6738 27.5062 36.7881 28.5602 37.771 28.7258L37.7695 24.0397C37.7695 23.3125 37.9818 22.5822 38.2372 21.9081H32.3679L32.3682 21.9096ZM24.5693 24.0575L24.4921 27.0406L24.8335 27.0938L25.665 24.2304L25.2419 23.3494L24.5708 24.0575H24.5693ZM26.3717 35.1059C26.3488 35.1052 26.3264 35.0998 26.3057 35.0902C26.285 35.0805 26.2665 35.0667 26.2514 35.0497C26.2362 35.0327 26.2247 35.0128 26.2176 34.9912C26.2104 34.9696 26.2078 34.9467 26.2098 34.9241C26.2112 34.9017 26.217 34.8797 26.2269 34.8596C26.2368 34.8394 26.2507 34.8215 26.2677 34.8067C26.2847 34.792 26.3045 34.7808 26.326 34.7738C26.3474 34.7668 26.37 34.7641 26.3925 34.7659C26.4905 34.7703 26.5587 34.8546 26.5558 34.9462C26.5524 34.9916 26.5311 35.0338 26.4967 35.0637C26.4622 35.0936 26.4173 35.1087 26.3717 35.1059ZM33.7384 37.7475C33.7636 37.7475 33.7933 37.7505 33.8201 37.7579C34.3397 37.9057 34.4689 39.7653 35.376 39.9309C35.4651 39.9501 35.5482 39.9545 35.6195 39.9545C35.8823 39.9545 36.0382 39.8436 36.2075 39.6441C36.2075 39.6441 35.7502 38.9301 35.4087 38.4467C34.9558 37.814 34.604 37.0498 33.7592 37.0498C33.7384 37.0498 33.7146 37.0498 33.6924 37.0527C33.5315 37.0592 33.3758 37.1115 33.244 37.2035C32.962 37.0178 32.6319 36.9176 32.2937 36.9153C31.7667 36.9153 31.3539 37.1577 31.1476 37.1577H31.1401L29.2546 36.9714C28.9591 36.9419 28.726 36.6462 28.6414 36.5309L28.6087 36.4807C28.6087 36.4289 28.6087 36.3772 28.6058 36.3314C28.5419 34.7925 27.3482 34.1347 26.9221 34.1229C26.9221 34.1229 26.9726 33.8302 26.8582 33.7193L26.4425 34.2219L25.0766 33.5389L26.0506 34.6743L25.2266 35.5982C25.1226 35.7031 25.136 35.845 25.1791 35.9056L25.5354 36.219L25.9867 35.9455C26.009 35.9293 26.0506 35.9234 26.1011 35.9234C26.2258 35.9234 26.4128 35.9559 26.5806 35.9559C26.7662 35.9559 26.9251 35.9175 26.9444 35.7445C26.888 36.3151 26.3564 37.307 26.7053 38.086L26.9637 38.6744L25.2964 38.4349L24.5154 39.7491C24.2749 40.1867 24.2363 40.6597 24.4679 40.9169L24.7604 41.282C24.7604 41.282 25.1701 40.8489 25.2607 40.5636L25.1286 40.4187C25.0172 40.296 25.0232 40.1867 25.0915 40.0551L25.5814 39.245L27.5487 39.7077L27.6526 39.5303C27.7862 39.3086 27.9792 39.2435 28.1901 39.2435C28.2777 39.2435 28.3667 39.2539 28.4588 39.2686C28.824 39.3411 29.4254 39.4372 30.0266 39.4372C30.6873 39.4372 31.3421 39.3189 31.691 38.9301C32.4036 39.9841 33.8497 40.1511 33.7354 40.6877L33.3553 42.4941C33.6077 42.4823 33.8498 42.4661 34.0799 42.435L34.4422 40.5562C34.4715 40.3966 34.4973 40.2364 34.5194 40.0757C34.3798 39.9338 34.0428 39.6367 33.8512 39.2745C33.5974 38.7852 33.7354 38.5295 33.4979 37.8939C33.4979 37.8939 33.5721 37.7461 33.7384 37.7461L33.7384 37.7475ZM51.2 31.5979C49.6707 30.8441 48.7056 28.8484 48.4711 28.1299C48.2187 32.0887 46.2811 34.835 44.017 37.4781C42.8411 38.8499 42.4313 40.1833 42.4313 40.1833C42.4313 40.1833 42.6585 38.6725 43.674 37.4427C45.7867 34.9119 47.7941 31.76 47.944 28.1147C48.0465 25.572 47.3918 23.5099 46.3673 21.8103C46.9404 23.5798 46.8587 25.7484 44.9152 27.7717C44.9152 27.7717 48.7859 23.1478 43.3756 18.4056C41.2109 16.6022 38.8413 15.4875 37.6223 14.6981C42.0275 16.132 44.1799 14.5533 44.1799 14.5533C42.7724 15.7698 40.9507 15.7492 39.8209 15.5732C40.1282 15.7225 40.4474 15.8792 40.7889 16.0611C44.5051 18.0744 47.8431 21.387 48.4132 25.9726V25.9371C49.2758 30.4413 51.2 31.597 51.2 31.597L51.2 31.5979ZM52.3313 26.35C52.3655 26.3529 52.3952 26.3529 52.4293 26.3529C54.5005 26.3529 55.2013 24.14 55.2013 24.14H55.1612C54.7811 24.14 51.7018 24.0513 49.525 21.2914C48.0937 19.4776 46.9194 17.8825 44.6 17.2558L44.3714 17.2144L44.3224 16.9823C44.2586 16.629 44.5006 16.2978 45.0528 15.9416C48.2524 13.8514 46.0773 11.1847 46.0773 11.1847C46.0773 11.1847 45.1657 13.3163 43.1212 13.3163L42.9683 13.3133C42.7367 13.3015 42.5125 13.2941 42.2868 13.2453L41.9097 13.1714C41.9097 13.1714 42.4932 11.5897 41.0857 10.1395C40.0271 9.04263 38.7369 8.85639 37.993 8.85639C37.6174 8.85639 37.3799 8.90517 37.3799 8.90517C38.0866 9.8261 38.5973 11.3561 37.7807 12.2992C37.0755 13.1093 35.3533 13.1493 35.3533 14.3584C35.3533 14.8699 35.8328 15.4672 36.694 16.0037C39.2833 17.6298 41.8532 19.788 42.9221 22.6807C44.2583 26.2876 42.7528 28.6824 40.6059 30.0556C40.6059 30.0556 41.28 30.6735 42.2554 30.7534C42.4544 30.7726 42.6489 30.7814 42.83 30.7814C44.8923 30.7814 45.9583 29.8162 45.9583 29.8162C45.9583 29.8162 45.7816 31.1495 44.7111 32.3868C43.7193 33.528 42.4202 34.2021 40.4381 34.2302C40.4381 34.2302 40.3758 35.1467 41.2532 35.942C41.8159 36.4431 43.1121 36.6072 43.1121 36.6072C43.1121 36.6072 40.6831 37.0965 40.4144 40.6753C40.2689 42.6147 39.773 43.2873 39.773 43.2873H39.816C45.4522 43.2873 45.3079 38.4653 45.3079 38.4653C45.3079 38.4653 45.6999 39.8933 47.2722 40.2658C47.4622 40.3161 47.6656 40.3353 47.8586 40.3353C48.3634 40.3353 48.8044 40.217 48.8044 40.217C48.8044 40.217 47.9804 38.4845 48.797 36.0617C49.4755 34.0498 49.3656 32.5597 49.3656 32.5597C49.3656 32.5597 50.1243 33.7054 52.0084 33.7158H52.0277C52.4727 33.7226 52.9123 33.6176 53.3058 33.4103C53.6992 33.2031 54.0338 32.9004 54.2785 32.5302C50.5208 30.9736 50.8919 25.9519 50.8919 25.9519C50.8919 25.9519 51.3789 26.3155 52.3306 26.351L52.3313 26.35ZM14.7844 37.4784C12.5203 34.8353 10.5827 32.0888 10.3274 28.1302C10.0943 28.8501 9.13072 30.8457 7.60297 31.5982C7.60297 31.5982 9.5242 30.4422 10.3868 25.9384V25.9739C10.9584 21.3883 14.296 18.0758 18.0122 16.0639C18.3537 15.8791 18.6744 15.7239 18.9788 15.5761C17.8504 15.7505 16.0272 15.7712 14.6212 14.5561C14.6212 14.5561 16.774 16.1334 21.1772 14.6995C19.9597 15.4889 17.5901 16.6035 15.4266 18.4069C10.0151 23.1491 13.8855 27.7731 13.8855 27.7731C11.9405 25.7479 11.8603 23.5823 12.4334 21.8117C11.409 23.5116 10.7527 25.5738 10.8596 28.1181C11.0066 31.762 13.0124 34.9133 15.1208 37.4461C16.1422 38.6731 16.3723 40.1839 16.3723 40.1839C16.3723 40.1839 15.9566 38.852 14.7837 37.4801L14.7844 37.4784ZM15.6901 36.6062C15.6901 36.6062 16.9863 36.4436 17.549 35.941C18.4249 35.1472 18.3641 34.2307 18.3641 34.2307C16.3805 34.2026 15.0829 33.5286 14.0866 32.3874C13.0206 31.1501 12.8424 29.8167 12.8424 29.8167C12.8424 29.8167 13.9085 30.782 15.9678 30.782C16.1534 30.782 16.3464 30.7731 16.5439 30.7539C17.1532 30.6925 17.7296 30.4493 18.1978 30.0562C16.0479 28.6829 14.5425 26.2881 15.8772 22.6796C16.9462 19.7897 19.5148 17.6301 22.1075 16.0027C22.9671 15.4675 23.4452 14.8703 23.4452 14.3589C23.4452 13.1497 21.7259 13.1098 21.0207 12.2997C20.2041 11.3565 20.7163 9.82659 21.4216 8.90561C21.4216 8.90561 21.1855 8.85683 20.8084 8.85683C20.066 8.85683 18.7758 9.04308 17.7157 10.14C16.3053 11.5916 16.8917 13.1733 16.8917 13.1733L16.5146 13.2472C16.2904 13.293 16.0632 13.3019 15.8316 13.3152L15.6832 13.3167C13.6343 13.3167 12.7241 11.1866 12.7241 11.1866C12.7241 11.1866 10.552 13.8518 13.7515 15.9421C14.3008 16.2983 14.5428 16.6309 14.479 16.9827L14.43 17.2133L14.1969 17.2547C11.8822 17.883 10.7078 19.478 9.27379 21.2918C7.0972 24.0517 4.02111 24.1404 3.63923 24.1404H3.59766C3.59766 24.1404 4.29989 26.3534 6.37257 26.3534C6.40523 26.3534 6.43492 26.3534 6.47056 26.3504C7.42223 26.3164 7.91074 25.9528 7.91074 25.9528C7.91074 25.9528 8.27894 30.9741 4.52266 32.5311C4.52266 32.5311 5.20711 33.7181 6.77499 33.7181H6.79281C8.67838 33.7063 9.4356 32.5606 9.4356 32.5606C9.4356 32.5606 9.32573 34.0522 10.0012 36.0626C10.8178 38.4869 9.99825 40.2164 9.99825 40.2164C9.99825 40.2164 10.4362 40.3347 10.9425 40.3347C11.1385 40.3347 11.3389 40.317 11.5275 40.2667C13.0983 39.8942 13.4917 38.4662 13.4917 38.4662C13.4917 38.4662 13.3477 43.2882 18.9847 43.2882H19.0263C19.0263 43.2882 18.5319 42.6156 18.3879 40.6762C18.1206 37.0988 15.6887 36.6066 15.6887 36.6066L15.6901 36.6062ZM28.1277 18.8374H30.7853V19.7465C30.4735 19.3652 29.8648 19.4435 29.8648 19.4435V20.7547C29.8648 20.7547 29.8856 21.3993 30.1142 21.6786H28.7988C29.0289 21.3992 29.0482 20.7547 29.0482 20.7547V19.4435C29.0482 19.4435 28.4424 19.3652 28.1277 19.7465L28.1277 18.8374ZM25.2325 18.9734C25.3246 19.0725 25.4151 19.1804 25.5027 19.2883C25.5235 19.3134 25.5428 19.3356 25.5636 19.3652C25.6453 19.4716 25.7269 19.5869 25.8056 19.7022L25.8591 19.7806C25.9526 19.9225 26.0417 20.0688 26.1308 20.2211C26.9444 21.621 28.245 22.4577 29.3986 22.4592C30.5552 22.4577 31.8543 21.621 32.6694 20.2211C32.76 20.0659 32.8505 19.9151 32.9456 19.7732C33.054 19.6078 33.1699 19.4475 33.293 19.2927C33.3836 19.1804 33.4771 19.071 33.5721 18.9705C33.5885 18.9557 33.6018 18.9394 33.6181 18.9261C34.0339 18.5033 34.5253 18.1811 35.1726 18.0022L34.8846 17.8352H34.8697L33.7235 17.1729L32.5492 16.5003L29.4075 18.2062L29.3986 18.1988L29.3942 18.2062L26.2525 16.5003L25.0766 17.1729L23.9305 17.8352H23.9171L23.6276 18.0022C24.2734 18.1796 24.7664 18.4989 25.1821 18.9232C25.1999 18.9379 25.2117 18.9586 25.2325 18.9734ZM29.3986 8.31248C27.4537 8.31396 25.9942 8.94959 25.6764 9.69906L29.3986 11.1626L33.1222 9.69906C32.8075 8.94959 31.348 8.31396 29.3986 8.31248ZM29.4387 47.1H29.3644C28.1856 47.1074 26.5598 46.8664 25.7789 46.6373L24.8376 49.1785C25.4582 49.3987 27.5605 49.8215 29.403 49.8215C31.2426 49.8215 33.3464 49.3987 33.9656 49.1785L33.0258 46.6388C32.2403 46.8664 30.6175 47.1074 29.4387 47.1ZM36.5605 44.5722C35.8597 44.9683 34.2964 45.5626 33.3862 45.8375L34.1493 47.9366C35.5568 47.5523 36.7194 47.1043 37.6785 46.6239L36.0928 46.0991L36.5605 44.5722ZM22.2407 44.5722L22.7099 46.0992L21.1227 46.624C22.0803 47.1044 23.2473 47.5523 24.6504 47.9352L25.415 45.8362C24.5064 45.5612 22.94 44.9683 22.2407 44.5722ZM29.3982 5.88375C30.8666 5.88375 32.3038 6.23409 33.4113 6.84756C33.5123 6.51052 33.6534 6.09957 33.8449 5.66942L33.4262 5.71968L32.9882 5.76403L32.8026 5.36638L32.2414 4.18824L31.2229 4.71747L30.825 4.91851L30.5073 4.60808L29.3982 3.51416L28.2921 4.60808L27.9759 4.91851L27.5794 4.71747L26.555 4.18824L26.0012 5.36638L25.8127 5.76551L25.3732 5.71968L24.9575 5.66942C25.149 6.09959 25.2886 6.51058 25.391 6.84756C26.5016 6.23408 27.9388 5.88375 29.3997 5.88375H29.3982ZM51.7949 19.509C51.9864 19.574 52.1794 19.6036 52.3709 19.6036C53.2024 19.6036 54.0041 19.067 54.2788 18.455C54.2788 18.455 52.757 18.3633 51.1209 16.7062C50.6012 16.1711 50.0489 16.0099 49.5768 16.0099C48.8419 16.0099 48.2895 16.3958 48.2895 16.3958C50.2671 17.4453 50.6695 19.1306 51.7949 19.509ZM6.42985 19.6021C6.62286 19.6021 6.81588 19.574 7.00145 19.5075C8.12986 19.1291 8.53665 17.4453 10.5098 16.3973C10.5098 16.3973 9.95751 16.01 9.22701 16.01C8.75191 16.01 8.20108 16.1696 7.67845 16.7077C6.04382 18.3633 4.52342 18.4565 4.52342 18.4565C4.7966 19.067 5.59981 19.6036 6.4298 19.6036L6.42985 19.6021ZM28.3991 13.0582V13.9156L28.2343 13.8387C28.2268 13.8328 27.9833 13.7796 27.5632 13.4455C26.8668 12.9074 26.8535 12.4107 26.8535 12.4107L28.3976 13.0582L28.3991 13.0582ZM29.1265 17.0746V11.7497L25.7295 10.5996L26.6263 15.7588L29.128 17.0745L29.1265 17.0746ZM30.4034 13.0582L31.9475 12.4107C31.9475 12.4107 31.9356 12.9074 31.2363 13.4455C30.8161 13.7781 30.5741 13.8328 30.5667 13.8387L30.4034 13.9141L30.4034 13.0582ZM32.1747 15.7605L33.0669 10.6012L29.6714 11.7499V17.0748L32.1746 15.7591L32.1747 15.7605ZM24.3219 29.418C24.653 29.5363 25.0539 29.5614 25.2603 29.5614C25.2677 29.5363 25.2796 29.5053 25.29 29.4668C25.3063 29.4077 25.3241 29.3456 25.3375 29.2806C25.3954 28.9849 25.4147 28.6523 25.4206 28.4365C25.2307 28.3241 25.076 28.1613 24.9737 27.9664C24.8475 27.7018 24.6679 27.5776 24.4051 27.5776C24.0636 27.5776 23.6969 27.7846 23.5381 27.8792C23.4133 28.6154 23.9582 29.2835 24.322 29.4166L24.3219 29.418ZM31.8372 26.5931C31.2077 27.2775 29.9709 28.4705 29.9115 28.5296L29.8372 28.6035L25.9325 28.5429C25.9292 28.8645 25.8874 29.1846 25.8078 29.4963L25.7766 29.619L30.4192 30.4528C30.9018 30.1157 32.2306 29.1475 32.7473 28.7676C32.3716 28.2207 32.336 27.5717 32.4206 27.1164C32.1977 26.9762 32.0004 26.7992 31.8372 26.5931Z" fill="#FFFFFE"/>
<path id="Vector_2" d="M37.7719 32.0416H21.0317V38.3226C21.0317 40.8918 22.895 42.4986 25.6461 42.4986C27.9429 42.4986 28.5487 42.5873 29.4024 43.4343C29.9918 42.8475 30.4788 42.6302 31.481 42.5474L31.5033 42.4513L32.0303 40.8238C32.0007 40.7868 31.1395 39.8097 31.1395 39.8097C30.798 39.9236 30.51 39.9428 30.026 39.9428C29.5315 39.9428 28.9718 39.8836 28.3646 39.7713C28.3077 39.7578 28.2494 39.7509 28.1909 39.7506C28.1167 39.7506 28.1122 39.7565 28.0914 39.7935L27.9875 39.9664L27.7945 40.2828L27.4337 40.1985L25.8272 39.8215L25.606 40.1837L25.6401 40.2236L25.8346 40.438L25.7485 40.7188C25.6298 41.084 25.2467 41.5112 25.1294 41.6294L24.7285 42.0581L24.3618 41.5984L24.0871 41.254C23.7976 40.9317 23.7308 40.438 23.8941 39.9206C23.8894 39.9241 23.8837 39.9261 23.8778 39.9265L23.425 40.1142L23.2216 39.6708L23.0775 39.3589C22.9393 39.0397 22.9144 38.6832 23.007 38.3481C23.0996 38.013 23.3041 37.7194 23.5868 37.5155L24.8785 36.7868L26.1108 37.0277C26.1405 36.9095 26.1851 36.4896 26.2192 36.3817C26.1955 36.3787 26.1732 36.3743 26.1494 36.3743L25.4397 36.6374L24.7568 36.1674C24.7568 36.1674 24.4895 35.9101 24.7316 35.6529L25.3923 34.6521L23.7146 32.553L26.2935 33.6085L26.4657 33.3971L26.8131 32.9802L27.2081 33.3557C27.3119 33.4568 27.3841 33.5857 27.4159 33.7267C28.1256 34.0032 29.3995 34.8177 29.5123 36.1422L29.1144 36.3003V36.3107C29.205 36.4186 29.2807 36.4629 29.3045 36.4674L31.1455 36.6477C31.193 36.6389 31.2494 36.6182 31.3147 36.6004C31.5449 36.5221 31.8878 36.4082 32.2947 36.4082C32.6273 36.4082 32.9479 36.4851 33.2553 36.63C33.3696 36.5856 33.5077 36.5546 33.671 36.5442L33.7601 36.5413C34.7445 36.5413 35.2345 37.276 35.6278 37.8628C35.6932 37.9648 35.7585 38.0594 35.8268 38.154C36.1712 38.6389 36.6211 39.3469 36.6389 39.378L36.8423 39.6928L36.5929 39.9826C36.4029 40.2043 36.1133 40.463 35.6204 40.463C35.5087 40.4621 35.3974 40.4507 35.2878 40.429C35.1868 40.4097 35.0883 40.3795 34.9939 40.3388C34.9788 40.4432 34.9614 40.5472 34.9419 40.6507L34.6197 42.3315C36.5499 41.8584 37.7762 40.4038 37.7762 38.3225L37.7719 32.0416ZM21.0317 31.536H34.0527C33.4023 30.8649 33.4128 30.0179 33.5775 29.4665C33.4019 29.3824 33.2386 29.275 33.092 29.1472C32.5828 29.5211 31.0298 30.649 30.6245 30.9328L30.5369 30.992L25.4265 30.0695H25.3226C25.2008 30.0695 25.0212 30.0651 24.8252 30.04C24.8042 30.1334 24.7565 30.2188 24.6878 30.2858C24.6191 30.3528 24.5324 30.3985 24.4381 30.4174C24.3438 30.4363 24.2461 30.4276 24.1567 30.3924C24.0673 30.3572 23.9901 30.2969 23.9344 30.2188C23.8952 30.1656 23.8672 30.105 23.8519 30.0408C23.8366 29.9766 23.8343 29.91 23.8453 29.8448L23.8646 29.734C23.339 29.3644 22.8506 28.5366 23.0673 27.6644L23.0881 27.5728L23.1623 27.5196C23.2372 27.4687 23.3145 27.4213 23.3939 27.3777L23.0227 27.3185C22.9568 27.3073 22.8979 27.2708 22.8585 27.217C22.8192 27.1632 22.8024 27.0962 22.8119 27.0303C22.8357 26.8913 22.9648 26.7937 23.1029 26.8189L23.9863 26.9578L24.068 23.852L25.3834 22.4625L26.2059 24.1876L25.3389 27.1766L26.1199 27.2993C26.1866 27.3102 26.2462 27.347 26.2857 27.4015C26.3252 27.4561 26.3414 27.5241 26.3307 27.5905C26.3211 27.6494 26.2907 27.7029 26.245 27.7414C26.1992 27.7799 26.1412 27.8008 26.0813 27.8004L26.0412 27.7989L25.4042 27.6955C25.4131 27.7162 25.425 27.7265 25.4339 27.7472C25.5048 27.8696 25.6115 27.9676 25.7397 28.0281L29.6341 28.0916C29.7989 27.9305 30.2072 27.5314 30.6289 27.1086C30.2619 26.9745 29.9397 26.7412 29.6984 26.4349C29.4571 26.1286 29.3064 25.7614 29.263 25.3746C28.7285 25.1469 28.3573 24.807 28.1524 24.3635C27.903 23.8136 27.9921 23.2637 28.0589 22.9962C27.5392 22.8084 26.9929 22.4625 26.4346 21.9097H20.5674C20.8198 22.5838 21.0321 23.314 21.0321 24.0398V31.5345L21.0317 31.536Z" fill="#FFE52B"/>
<path id="Vector_3" d="M29.4014 11.1651L25.6792 9.69862C25.9954 8.95063 27.4549 8.315 29.4014 8.31351C31.3493 8.315 32.8088 8.95063 33.125 9.69862L29.4014 11.1651ZM32.1763 15.7609L29.6745 17.0766V11.749L33.0701 10.5989L32.1763 15.7582L32.1763 15.7609ZM33.7263 17.1741L34.8696 17.8364H34.8859L35.1739 18.0034C34.5281 18.1808 34.0337 18.5046 33.6195 18.9273L33.5749 18.9717C33.4773 19.0754 33.3837 19.1829 33.2943 19.2939L33.2424 19.3619C33.1533 19.4758 33.0687 19.5925 32.99 19.7137L32.9469 19.7744C32.8506 19.9207 32.759 20.0701 32.6722 20.2223C31.8557 21.6222 30.5565 22.4589 29.4014 22.4618C28.2463 22.4589 26.9457 21.6222 26.1321 20.2223C26.0456 20.073 25.955 19.9261 25.8604 19.7817L25.8069 19.7034C25.7294 19.5893 25.6492 19.4769 25.5664 19.3664C25.5456 19.3368 25.5263 19.3146 25.5056 19.2895C25.4184 19.1817 25.3278 19.0767 25.2339 18.9746C25.2146 18.9598 25.2012 18.9406 25.1834 18.9244C24.7592 18.4821 24.2217 18.1636 23.6289 18.0034L23.9199 17.8364H23.9318L25.0795 17.1741L26.2539 16.5015L29.3955 18.2074L29.4014 18.2015L29.4103 18.2074L32.5504 16.5015L33.7263 17.1741ZM38.2398 21.9104C37.983 22.5845 37.7707 23.3147 37.7707 24.0405L37.7736 28.7266C36.7922 28.564 36.6749 27.5085 36.672 27.4627L36.6541 27.2483L36.4418 27.2291C36.0818 27.1975 35.7454 27.0374 35.4946 26.7783C35.012 26.2978 35.012 25.5202 35.012 25.5129C35.0061 25.5528 34.4835 26.2816 35.0893 27.0798C35.3446 27.4169 35.7158 27.6253 36.1939 27.7066C36.3067 28.2905 36.7432 29.1168 37.7736 29.244V31.5353H34.877C33.5407 30.7947 34.1064 29.4908 34.1332 29.4347L34.246 29.1864L33.9906 29.0903C32.5431 28.5551 32.9424 27.1153 32.9618 27.0533L33.0212 26.8434L32.8222 26.7517C31.6285 26.1989 31.7904 24.7118 31.8067 24.6497C31.4385 24.9468 31.3064 25.5514 31.5588 26.1471C31.4222 26.3038 31.2381 26.4916 31.0376 26.6985C30.6889 26.6227 30.3749 26.4347 30.1441 26.1635C29.9133 25.8923 29.7786 25.5531 29.7607 25.1981L29.7593 25.0236L29.5959 24.9616C29.1134 24.7842 28.7823 24.5151 28.6175 24.1559C28.4349 23.7583 28.4987 23.3429 28.5492 23.1404C28.8267 23.1977 29.1092 23.2274 29.3925 23.2291H29.4118C29.5559 23.2291 29.6969 23.2202 29.8365 23.2069C30.6085 23.13 31.4697 22.8004 32.3694 21.9105L38.2398 21.9104ZM34.6201 42.3324L34.9437 40.6516L34.9957 40.3412C35.1955 40.4191 35.4077 40.4607 35.6222 40.4639C36.1152 40.4639 36.4032 40.2037 36.5947 39.9834L36.8412 39.6952L36.6393 39.3788C36.6215 39.3478 36.1716 38.6397 35.8271 38.1549C35.7587 38.0591 35.6928 37.9615 35.6297 37.8622C35.2362 37.2768 34.7448 36.5421 33.7589 36.5421L33.6713 36.5451C33.5294 36.5527 33.3893 36.5811 33.2556 36.6293C32.9556 36.4865 32.6275 36.4118 32.295 36.4106C31.9605 36.4186 31.6298 36.4825 31.3166 36.5998C31.2512 36.619 31.1918 36.6397 31.1458 36.6485L29.3048 36.4682C29.2811 36.4623 29.2068 36.4179 29.1148 36.3115V36.3012L29.5127 36.143C29.4013 34.8185 28.126 34.004 27.4162 33.7276C27.3848 33.5859 27.3126 33.4565 27.2084 33.3551L26.8135 32.9811L26.466 33.3964L26.2953 33.6093L23.7149 32.5524L25.3926 34.6529L24.7319 35.6537C24.4884 35.9095 24.7571 36.1682 24.7571 36.1682L25.4401 36.6383L26.1498 36.3736C26.1735 36.3736 26.1943 36.3796 26.2195 36.3825C26.1854 36.4904 26.1409 36.9118 26.1112 37.0285L24.8803 36.7876L23.5886 37.5163C22.9219 38.0042 22.8315 38.8083 23.0794 39.3597L23.2219 39.6731L23.4253 40.1151L23.8781 39.9288C23.8855 39.9258 23.8915 39.9243 23.8959 39.9199C23.7326 40.4388 23.7994 40.931 24.089 41.2548L24.3636 41.5992L24.7289 42.0604L25.1297 41.6303C25.2485 41.512 25.6316 41.0848 25.7489 40.7182L25.835 40.4388L25.6405 40.2245L25.6078 40.1845L25.8276 39.8224L27.434 40.2008L27.7963 40.2836L27.9893 39.9658L28.0932 39.7943C28.1125 39.7573 28.117 39.7514 28.1912 39.7514C28.2491 39.7514 28.3056 39.7573 28.3664 39.7721C28.9142 39.8798 29.4709 39.9367 30.0293 39.9421C30.5088 39.9421 30.7984 39.9244 31.1398 39.8106C31.1398 39.8106 32.0024 40.7862 32.0321 40.8246L31.5035 42.4507L31.4798 42.5483C30.4806 42.6296 29.9936 42.8484 29.4042 43.4352C28.549 42.5897 27.9447 42.4995 25.6479 42.4995C22.8968 42.4995 21.032 40.8927 21.032 38.322V32.0425H37.7733L37.7763 38.322C37.7763 40.4048 36.5502 41.8578 34.6201 42.3324ZM24.3086 38.7816L24.3962 38.9989C24.3368 39.1881 23.6835 39.4572 23.6835 39.4572L23.544 39.1482C23.4548 38.9365 23.4396 38.7011 23.5007 38.4798C23.5618 38.2584 23.6957 38.0638 23.881 37.9272L24.9396 37.2842L26.0635 37.5207C26.0412 37.8769 26.255 38.143 26.255 38.143L25.0791 37.9183L24.3739 38.4032C24.2551 38.486 24.2462 38.6397 24.3086 38.7816ZM34.4418 40.5555L34.081 42.4344C33.8494 42.4669 33.6059 42.4846 33.3564 42.4935L33.7365 40.6901C33.8494 40.152 32.4063 39.985 31.6921 38.931C31.3432 39.3212 30.6884 39.438 30.0292 39.438C29.4264 39.438 28.8266 39.3419 28.4599 39.2695C28.3716 39.2542 28.2822 39.2458 28.1926 39.2444C27.9803 39.2444 27.7888 39.3094 27.6552 39.5326L27.5512 39.71L25.5825 39.2473L25.0926 40.0559C25.0243 40.1875 25.0183 40.2969 25.1297 40.4196L25.2633 40.5644C25.1712 40.8498 24.7615 41.2829 24.7615 41.2829L24.469 40.9177C24.2374 40.6605 24.276 40.1875 24.5165 39.7499L25.2974 38.4343L26.9648 38.6752L26.7064 38.0854C26.3575 37.3064 26.889 36.316 26.9455 35.7454C26.9262 35.9183 26.7673 35.9568 26.5832 35.9568C26.4139 35.9568 26.2269 35.9257 26.1021 35.9257C26.0532 35.9257 26.0101 35.9302 25.9878 35.9464L25.5365 36.2199L25.1801 35.9065C25.1371 35.8474 25.1237 35.704 25.2277 35.5976L26.0532 34.6751L25.0792 33.5398L26.4421 34.2243L26.8593 33.7202C26.9737 33.8325 26.9232 34.1237 26.9232 34.1237C27.3493 34.1356 28.5445 34.7934 28.6068 36.3308C28.6113 36.3781 28.6113 36.4298 28.6113 36.4815L28.6425 36.5318C28.7271 36.6486 28.9602 36.9457 29.2557 36.9723L31.1412 37.1586H31.1486C31.3565 37.1586 31.7678 36.9161 32.2948 36.9161C32.5843 36.9161 32.9035 36.9901 33.2451 37.2044C33.2451 37.2044 33.4173 37.0684 33.6949 37.0536C33.7157 37.0507 33.7395 37.0507 33.7588 37.0507C34.605 37.0507 34.9569 37.8134 35.4112 38.4476C35.7527 38.9295 36.2085 39.645 36.2085 39.645C36.0408 39.8445 35.8834 39.9554 35.6206 39.9554C35.5388 39.9557 35.4573 39.9478 35.3771 39.9317C34.4714 39.7647 34.3393 37.9066 33.8226 37.7587C33.7955 37.7516 33.7675 37.7481 33.7395 37.7484C33.5732 37.7484 33.5005 37.8962 33.5005 37.8962C33.738 38.5304 33.5984 38.7861 33.8538 39.2754C34.0439 39.6376 34.3809 39.9348 34.5205 40.0766C34.5205 40.0766 34.4834 40.3516 34.4418 40.5571L34.4418 40.5555ZM32.7061 42.5068C32.4537 42.5068 32.2192 42.5097 32.0083 42.5186L32.5606 40.8024C32.6467 40.5644 32.2102 40.2584 32.0305 39.9893C32.3022 40.1608 33.0075 40.5362 33.3475 40.6841C33.1271 41.2894 32.9134 41.897 32.7061 42.5068ZM24.4925 27.0414L24.5712 24.0583L25.2423 23.3502L25.6639 24.2312L24.8325 27.0946L24.491 27.0429L24.4925 27.0414ZM24.975 27.9668C25.077 28.1611 25.2312 28.3233 25.4205 28.4354C25.4153 28.7189 25.388 29.0016 25.3388 29.2809C25.3239 29.346 25.3091 29.4066 25.2898 29.4672C25.2809 29.5056 25.269 29.5367 25.2616 29.5618C25.0552 29.5618 24.6529 29.5367 24.3247 29.4169C23.9595 29.2839 23.4146 28.6157 23.5408 27.8796C23.6982 27.7835 24.0634 27.578 24.4063 27.578C24.6691 27.578 24.8489 27.7022 24.975 27.9668ZM32.749 28.768C32.2338 29.1479 30.9035 30.1161 30.421 30.4531L25.7768 29.6194L25.8095 29.4967C25.8689 29.2558 25.9327 28.9276 25.9357 28.5418L29.839 28.6038L29.9132 28.5299C29.9726 28.4708 31.2094 27.2779 31.8389 26.5935C31.9889 26.7812 32.176 26.9586 32.4224 27.1153C32.3393 27.5736 32.3734 28.2211 32.749 28.768ZM26.4347 21.9108C26.9944 22.4637 27.5393 22.8081 28.059 22.9973C27.9921 23.2634 27.9031 23.8163 28.1525 24.3647C28.3574 24.8081 28.7286 25.1481 29.2646 25.3757C29.3239 25.9227 29.6699 26.7461 30.6305 27.1097C30.2088 27.5325 29.799 27.9317 29.6357 28.0913L25.7398 28.0307C25.6111 27.9694 25.5044 27.8704 25.434 27.7469C25.4266 27.7277 25.4132 27.7173 25.4043 27.6966L26.0413 27.8001L26.0813 27.8016C26.1412 27.802 26.1993 27.7811 26.2451 27.7426C26.2908 27.7041 26.3212 27.6505 26.3308 27.5917C26.3415 27.5255 26.3255 27.4577 26.2863 27.4031C26.2471 27.3486 26.1879 27.3117 26.1214 27.3005L25.339 27.1763L26.206 24.1887L25.385 22.4636L24.068 23.8532L23.9879 26.959L23.103 26.8186C22.9664 26.7919 22.8357 26.8925 22.8105 27.0299C22.8006 27.0965 22.8173 27.1642 22.857 27.2187C22.8967 27.2731 22.9562 27.3099 23.0228 27.3212L23.394 27.3773C23.2604 27.4527 23.1728 27.5133 23.1624 27.5207L23.0881 27.5739L23.0673 27.6656C22.8521 28.5378 23.339 29.3656 23.8646 29.7351L23.8453 29.846C23.8246 29.979 23.8542 30.1121 23.9344 30.22C23.9801 30.2855 24.0411 30.339 24.1123 30.3756C24.1835 30.4122 24.2626 30.4308 24.3427 30.4299C24.4552 30.429 24.5641 30.3902 24.6517 30.3199C24.7393 30.2496 24.8005 30.1519 24.8253 30.0426C25.0212 30.0648 25.2009 30.0707 25.3226 30.0707H25.4281L30.537 30.9916L30.6246 30.934C31.0314 30.6501 32.5844 29.5223 33.0922 29.1483C33.2332 29.268 33.3891 29.3774 33.5777 29.4676C33.4129 30.0189 33.4025 30.866 34.0528 31.5371H21.0318V24.0424C21.0318 23.3151 20.8195 22.5848 20.5671 21.9108L26.4347 21.9108ZM25.7309 10.6022L29.1294 11.7508V17.0757L26.6277 15.7601L25.7309 10.6008V10.6022ZM34.0212 9.95916C34.0212 8.65976 31.8283 7.49048 29.4083 7.49048H29.3934C26.9734 7.49048 24.782 8.65976 24.782 9.95916L24.8295 10.2785L25.7961 15.8117L24.8251 16.3734L22.3145 17.8368H22.3234C22.3234 17.8368 21.7592 18.1266 21.4964 18.304C20.5402 18.9663 20.3368 19.933 20.8921 20.3321C21.0287 19.5442 21.6537 18.7208 22.8222 18.7208C23.6655 18.7208 24.3069 19.1554 24.8265 19.8043C24.9601 19.9684 25.0863 20.1443 25.2036 20.3321C25.3491 20.5701 25.4961 20.78 25.6401 20.981H19.1698C19.6449 21.9345 20.0978 22.9442 20.0978 24.041V38.324C20.0978 41.7801 22.7628 43.4298 25.6461 43.4298C27.8746 43.4298 28.1745 43.3292 29.4039 44.5503C30.6272 43.3293 30.9286 43.4298 33.1587 43.4298C36.0435 43.4298 38.7044 41.7801 38.7044 38.324V24.041C38.7044 22.9441 39.1572 21.9345 39.6353 20.981H33.1618C33.3073 20.78 33.4528 20.5701 33.5983 20.3321C33.7171 20.1444 33.8433 19.9685 33.9739 19.8043C34.4966 19.1524 35.138 18.7208 35.9813 18.7208C37.1497 18.7208 37.7732 19.5442 37.9114 20.3321C38.4666 19.933 38.2662 18.9662 37.3027 18.304C37.0473 18.1266 36.4801 17.8368 36.4801 17.8368H36.4905L33.974 16.3734L33.0089 15.8117L33.974 10.2785L34.0212 9.95916ZM7.67957 16.7087C8.2022 16.1721 8.75298 16.0095 9.22813 16.0095C9.95857 16.0095 10.5124 16.3983 10.5124 16.3983C8.53777 17.4479 8.13092 19.1301 7.00257 19.51C6.8188 19.5735 6.62545 19.605 6.43097 19.6032C5.60098 19.6032 4.79777 19.068 4.52458 18.4575C4.52458 18.4575 6.04488 18.3644 7.67957 16.7087ZM6.43091 20.2772C6.70262 20.2772 6.96839 20.2358 7.22076 20.1501C7.92747 19.9165 8.37887 19.3562 8.85396 18.7709C9.33947 18.1751 9.8858 17.4995 10.8331 16.9969L11.807 16.4751L10.9014 15.8395C10.8271 15.7937 10.1486 15.3369 9.22813 15.3369C8.47389 15.3369 7.7731 15.6429 7.19559 16.2312C5.78958 17.6636 4.52906 17.7789 4.48301 17.7804L3.50307 17.838L3.90394 18.7353C4.31075 19.6296 5.37384 20.2772 6.43091 20.2772ZM10.8598 28.1175C10.7559 25.5734 11.4091 23.5113 12.4336 21.811C11.8635 23.582 11.9406 25.7491 13.8886 27.7746C13.8886 27.7746 10.0165 23.1477 15.4282 18.4084C17.5929 16.6035 19.9611 15.4889 21.1788 14.6995C16.7752 16.1334 14.6239 14.5546 14.6239 14.5546C16.0299 15.7712 17.8516 15.752 18.9815 15.5746C18.6756 15.7239 18.3549 15.8791 18.0135 16.0639C14.2973 18.0758 10.9613 21.3888 10.388 25.9738V25.9398C9.52548 30.4426 7.60424 31.5987 7.60424 31.5987C9.13348 30.8448 10.0956 28.8491 10.3301 28.1307C10.5855 32.0894 12.5216 34.8357 14.7842 37.4804C15.9601 38.8507 16.3729 40.1826 16.3729 40.1826C16.3729 40.1826 16.1442 38.6734 15.1242 37.4449C13.016 34.9127 11.0086 31.7612 10.8602 28.1169L10.8598 28.1175ZM28.1281 18.8383V19.7488C28.4429 19.366 29.0486 19.4443 29.0486 19.4443V20.7555C29.0486 20.7555 29.0293 21.4001 28.7992 21.6794H30.1147C29.886 21.4001 29.8638 20.7555 29.8638 20.7555V19.4443C29.8638 19.4443 30.4725 19.366 30.7843 19.7488V18.8383H28.1266H28.1281ZM27.564 13.446C27.9841 13.7786 28.2277 13.8348 28.2351 13.8393L28.3984 13.9146V13.0587L26.8543 12.4112C26.8543 12.4112 26.8676 12.908 27.564 13.446ZM31.2371 13.446C31.9349 12.9079 31.9498 12.4113 31.9498 12.4113L30.4042 13.0588V13.9161L30.5675 13.8393C30.5749 13.8348 30.8169 13.7786 31.2371 13.446ZM49.578 16.0108C50.0502 16.0108 50.6025 16.1719 51.1221 16.7085C52.7583 18.3641 54.2801 18.4573 54.2801 18.4573C54.0039 19.0678 53.2022 19.6044 52.3722 19.6044C52.1807 19.6044 51.9862 19.5749 51.7976 19.5083C50.6707 19.1299 50.2684 17.4462 48.2923 16.3981C48.2923 16.3981 48.8416 16.0108 49.578 16.0108ZM47.9701 16.9953C48.9158 17.4979 49.4681 18.1734 49.9522 18.7707C50.4273 19.3546 50.8771 19.9163 51.5854 20.1499C51.8348 20.2356 52.1006 20.277 52.3722 20.277C53.4308 20.277 54.4953 19.6295 54.8992 18.7337L55.3045 17.8379L54.3231 17.7788C54.2771 17.7788 53.0136 17.662 51.6091 16.2311C51.0301 15.6427 50.3307 15.3353 49.578 15.3353C48.6574 15.3353 47.9745 15.7935 47.9003 15.8408L46.9976 16.475L47.9701 16.9953ZM48.414 25.9401V25.9741C47.8439 21.3886 44.5063 18.0771 40.7896 16.0642C40.4482 15.8809 40.1289 15.7242 39.8216 15.5763C40.9515 15.7508 42.7732 15.7715 44.1807 14.5563C44.1807 14.5563 42.0279 16.1336 37.6231 14.6997C38.8406 15.4891 41.2117 16.6037 43.3764 18.4072C48.7852 23.1494 44.916 27.7733 44.916 27.7733C46.8609 25.7496 46.9411 23.5825 46.368 21.8119C47.3925 23.5119 48.0457 25.5741 47.9448 28.1184C47.7964 31.7622 45.7876 34.9135 43.6748 37.4464C42.6593 38.6733 42.4336 40.1841 42.4336 40.1841C42.4336 40.1841 42.8434 38.8522 44.0178 37.4818C46.2819 34.8358 48.2195 32.0907 48.4719 28.1321C48.7064 28.852 49.6715 30.8476 51.2007 31.6001C51.2007 31.6001 49.278 30.4441 48.414 25.9413L48.414 25.9401ZM18.9871 43.2886C13.3498 43.2886 13.4941 38.468 13.4941 38.468C13.4941 38.468 13.0991 39.896 11.5298 40.2671C11.3381 40.3151 11.1411 40.3384 10.9434 40.3365C10.4386 40.3365 9.99911 40.2183 9.99911 40.2183C9.99911 40.2183 10.8202 38.4858 10.0021 36.0629C9.32802 34.0525 9.43794 32.561 9.43794 32.561C9.43794 32.561 8.67929 33.7066 6.79516 33.7185H6.77585C5.20946 33.7185 4.52501 32.5315 4.52501 32.5315C8.2813 30.9749 7.91309 25.9531 7.91309 25.9531C7.91309 25.9531 7.42313 26.3168 6.47291 26.3522H6.37343C4.30076 26.3522 3.59853 24.1408 3.59853 24.1408H3.64158C4.02464 24.1408 7.09945 24.0521 9.27455 21.2922C10.7073 19.4784 11.8832 17.8833 14.1976 17.2565L14.4307 17.2151L14.4797 16.9831C14.545 16.6312 14.3016 16.2986 13.7523 15.9424C10.5527 13.8522 12.7249 11.1869 12.7249 11.1869C12.7249 11.1869 13.6335 13.3171 15.6839 13.3171L15.8324 13.3156C16.064 13.3037 16.2912 13.2934 16.5153 13.2461L16.8925 13.1737C16.8925 13.1737 16.3075 11.5919 17.718 10.1403C18.778 9.04342 20.0653 8.85718 20.8091 8.85718C21.1877 8.85718 21.4208 8.90596 21.4208 8.90596C20.7171 9.82689 20.2063 11.3569 21.0199 12.3C21.7267 13.1116 23.4474 13.15 23.4474 14.3578C23.4474 14.8707 22.9679 15.4679 22.1082 16.0045C19.5174 17.6306 16.9475 19.7888 15.878 22.6815C14.5448 26.2884 16.0502 28.6832 18.1986 30.058C18.1986 30.058 17.523 30.6759 16.5461 30.7542C16.3546 30.7726 16.1624 30.782 15.97 30.7823C13.9092 30.7823 12.8433 29.8185 12.8433 29.8185C12.8433 29.8185 13.0214 31.1504 14.0874 32.3891C15.0822 33.5303 16.3813 34.2029 18.3634 34.2311C18.3634 34.2311 18.4273 35.1476 17.5498 35.9428C16.9871 36.4455 15.6909 36.608 15.6909 36.608C15.6909 36.608 18.1214 37.0988 18.3887 40.6762C18.5342 42.6156 19.0271 43.2882 19.0271 43.2882L18.9871 43.2886ZM19.5854 42.9042C19.5839 42.8968 19.1904 42.2834 19.0642 40.6278C18.9158 38.644 18.1645 37.485 17.4207 36.8198C17.636 36.7193 17.8364 36.5937 18.0027 36.4429C19.0939 35.4643 19.0479 34.3142 19.0405 34.1871L18.9989 33.5663L18.3739 33.5574C16.708 33.5308 15.5455 33.0341 14.6027 31.9431C14.3995 31.7069 14.2186 31.4526 14.0623 31.1833C14.5819 31.3415 15.2174 31.4583 15.9701 31.4583C16.1706 31.4583 16.3814 31.4464 16.6026 31.4317C17.3604 31.3563 18.0769 31.052 18.656 30.5595L19.3048 29.9638L18.5655 29.4907C16.9086 28.4338 15.2145 26.4308 16.5166 22.9171C17.3584 20.6333 19.3048 18.5652 22.47 16.581C23.539 15.9084 24.1239 15.1145 24.1239 14.3577C24.1239 13.1884 23.144 12.7272 22.4254 12.3975C22.075 12.2305 21.7098 12.0649 21.5332 11.8594C20.9764 11.2164 21.4441 9.98503 21.9622 9.31681L22.6244 8.45206L21.551 8.24068C21.5213 8.23622 21.2392 8.18451 20.8087 8.18451C20.0084 8.18451 18.4777 8.37816 17.2305 9.66867C16.1898 10.7419 16.0532 11.8846 16.1066 12.6222C16.0056 12.6311 15.9047 12.6355 15.7978 12.6399H15.6835C14.1156 12.6399 13.3763 10.9843 13.348 10.9207L12.9071 9.88595L12.1944 10.7581C12.1543 10.8113 11.1106 12.1063 11.3659 13.7309C11.5337 14.81 12.2137 15.7413 13.3807 16.507C13.5084 16.5883 13.596 16.6578 13.6598 16.7155C11.4565 17.4294 10.2287 18.9949 8.93103 20.6402L8.74396 20.8738C6.76039 23.3912 3.95264 23.4666 3.61728 23.4666L2.66113 23.437L2.95213 24.3446C2.98628 24.454 3.83253 27.0306 6.3729 27.0306L6.49465 27.0262C6.76338 27.0188 7.0054 26.9818 7.21918 26.9404C7.11525 28.3448 6.59563 30.9421 4.26164 31.9074L3.54897 32.2031L3.935 32.8728C3.97063 32.9334 4.8377 34.3924 6.80051 34.3924C7.50301 34.3993 8.19679 34.2371 8.82267 33.9193C8.89838 34.555 9.05577 35.3695 9.36164 36.2816C10.0713 38.3896 9.41063 39.8693 9.3854 39.9284L9.035 40.6646L9.82634 40.873C9.87979 40.8878 10.3668 41.009 10.9428 41.009C11.7354 41.011 12.5025 40.7299 13.1046 40.2167C13.3198 40.8775 13.6895 41.624 14.3294 42.2847C15.4192 43.4008 16.9856 43.964 19.0315 43.964L20.2712 43.9477L19.5854 42.9042ZM26.3926 34.7666C26.37 34.7648 26.3473 34.7675 26.3258 34.7746C26.3043 34.7817 26.2844 34.7931 26.2674 34.808C26.2504 34.8229 26.2365 34.841 26.2266 34.8613C26.2168 34.8816 26.2111 34.9037 26.21 34.9263C26.2082 34.9488 26.211 34.9715 26.2182 34.9929C26.2255 35.0143 26.237 35.0341 26.2521 35.0509C26.2673 35.0678 26.2857 35.0814 26.3063 35.091C26.3268 35.1006 26.3492 35.1059 26.3718 35.1066C26.4172 35.1095 26.4619 35.0945 26.4963 35.0649C26.5308 35.0354 26.5522 34.9935 26.556 34.9484C26.5584 34.9028 26.5426 34.8581 26.512 34.824C26.4814 34.7899 26.4385 34.7693 26.3926 34.7666ZM34.1517 47.9376L33.387 45.8386C34.2971 45.5621 35.8606 44.9679 36.5628 44.5732L36.0952 46.1002L37.6793 46.625C36.7202 47.104 35.5592 47.5519 34.1517 47.9363L34.1517 47.9376ZM29.4036 49.8224C27.5611 49.8224 25.4587 49.3997 24.8382 49.1794L25.7795 46.6397C26.5604 46.8674 28.1847 47.1083 29.365 47.1009H29.4393C30.6181 47.1083 32.2409 46.8659 33.0263 46.6397L33.9661 49.1794C33.3455 49.4011 31.2433 49.8224 29.4036 49.8224ZM21.125 46.625L22.7107 46.1002L22.2415 44.5732C22.9408 44.9679 24.5087 45.5636 25.4158 45.8385L24.6512 47.9376C23.2482 47.5533 22.0827 47.104 21.125 46.625ZM37.7509 46.1593L36.7858 45.7898L37.053 44.7964L37.3455 43.7129C37.3455 43.7129 35.6381 44.6383 33.2284 45.3316C32.5455 45.5267 32.0288 45.6169 32.0288 45.6169V46.3546C32.0288 46.3546 30.7401 46.5763 29.4395 46.5763H29.3653C28.0617 46.5763 26.776 46.3546 26.776 46.3546V45.6154C26.776 45.6154 26.2578 45.5267 25.5749 45.3316C23.1682 44.6368 21.4607 43.7129 21.4607 43.7129L21.7487 44.7964L22.0219 45.7898L21.0539 46.1593L19.9805 46.5585C21.2098 47.1512 22.9142 48.0131 24.4732 48.4388L24.1065 49.4411C24.1065 49.4411 26.0841 50.3399 29.3788 50.3487V50.3501H29.4233V50.3487C32.7224 50.3398 34.7 49.4411 34.7 49.4411L34.3288 48.4388C35.8892 48.0131 37.5966 47.1527 38.82 46.5585L37.7509 46.1593ZM25.3756 5.71876L25.8136 5.76606L26.0021 5.36694L26.5544 4.1888L27.5789 4.71803L27.9768 4.92055L29.3991 3.51324L30.5082 4.60716L30.8259 4.92055L31.2238 4.71803L32.2423 4.1888L32.8035 5.36694L32.9891 5.76606L33.4271 5.71876L33.8458 5.66998C33.6542 6.10015 33.5132 6.50966 33.4108 6.8496C32.3047 6.23316 30.8675 5.88431 29.4006 5.88431C27.9396 5.88431 26.5025 6.23317 25.3919 6.8496C25.2721 6.44782 25.1273 6.05385 24.9584 5.66998L25.3741 5.71876H25.3756ZM29.3992 6.49781C31.3634 6.49781 32.9327 7.14822 33.8013 7.83855C33.8013 7.83855 34.0596 6.29084 34.9386 4.92641L33.3574 5.1038L32.5304 3.35205L30.9417 4.16952L29.3992 2.6499L27.8625 4.16952L26.2708 3.35205L25.4453 5.10529L23.8641 4.92494C24.7445 6.29086 25.0014 7.83708 25.0014 7.83708C25.8744 7.1467 27.4393 6.49781 29.3992 6.49781ZM54.2801 32.5309C54.2801 32.5309 53.5972 33.7179 52.0293 33.7179H52.01C50.1274 33.706 49.3672 32.5604 49.3672 32.5604C49.3672 32.5604 49.4771 34.0504 48.8001 36.0623C47.9835 38.4866 48.806 40.2162 48.806 40.2162C48.806 40.2162 48.3665 40.3359 47.8602 40.3359C47.6672 40.3359 47.4653 40.3167 47.2738 40.2665C45.7015 39.8954 45.3095 38.4674 45.3095 38.4674C45.3095 38.4674 45.455 43.288 39.8176 43.288H39.7731C39.7731 43.288 40.2705 42.6154 40.4175 40.6759C40.6847 37.0986 43.1137 36.6063 43.1137 36.6063C43.1137 36.6063 41.8175 36.4437 41.2548 35.9426C40.3774 35.1487 40.4383 34.2308 40.4383 34.2308C42.4218 34.2027 43.7225 33.5301 44.7128 32.3874C45.3509 31.6564 45.7815 30.7689 45.9599 29.8168C45.9599 29.8168 44.8939 30.7821 42.8317 30.7821C42.6505 30.7821 42.4575 30.7732 42.2586 30.754C41.2816 30.6756 40.6076 30.0562 40.6076 30.0562C42.7545 28.6829 44.26 26.2867 42.9252 22.6797C41.8562 19.7898 39.2847 17.6302 36.6971 16.0038C35.836 15.4672 35.3549 14.87 35.3549 14.357C35.3549 13.1493 37.0772 13.1109 37.7839 12.2993C38.6005 11.3562 38.0882 9.82623 37.3815 8.90525C37.3815 8.90525 37.6191 8.85647 37.9947 8.85647C38.74 8.85647 40.0287 9.04273 41.0888 10.1396C42.4948 11.5913 41.9114 13.1729 41.9114 13.1729L42.2885 13.2469C42.5142 13.2927 42.7384 13.303 42.9714 13.3149L43.1229 13.3163C45.1674 13.3163 46.0804 11.1847 46.0804 11.1847C46.0804 11.1847 48.254 13.8515 45.0545 15.9417C44.5037 16.298 44.2602 16.6306 44.3241 16.9824L44.3745 17.2144L44.6017 17.2543C46.9208 17.8826 48.0952 19.4791 49.5281 21.2915C51.7047 24.0513 54.7842 24.1401 55.1627 24.1401H55.2043C55.2043 24.1401 54.502 26.353 52.4308 26.353C52.3967 26.353 52.367 26.353 52.3329 26.35C51.3826 26.316 50.8927 25.9524 50.8927 25.9524C50.8927 25.9524 50.523 30.9738 54.2808 32.5308L54.2801 32.5309ZM52.4302 27.03C54.969 27.03 55.8183 24.4535 55.8539 24.344L56.136 23.4349L55.1858 23.4645H55.1831C54.8461 23.4645 52.0459 23.3906 50.0607 20.8731L49.8722 20.6396C48.5746 18.9943 47.3437 17.4288 45.1434 16.7148C45.2314 16.6382 45.3252 16.5685 45.424 16.5064C46.591 15.7407 47.271 14.8109 47.4402 13.7303C47.6911 12.1056 46.6504 10.8108 46.6058 10.7575L45.8991 9.88532L45.4567 10.9201C45.427 10.9837 44.6846 12.6393 43.1227 12.6393H43.0069C42.9 12.6349 42.7976 12.6304 42.6966 12.6216C42.7515 11.8824 42.6164 10.7412 41.5772 9.66804C40.3285 8.37748 38.7963 8.18388 37.9946 8.18388C37.567 8.18388 37.2819 8.23709 37.2508 8.24005L36.1833 8.45143L36.841 9.31618C37.3577 9.98435 37.8268 11.2158 37.2715 11.8588C37.0934 12.0658 36.7281 12.2298 36.3793 12.3969C35.6607 12.7266 34.6778 13.1878 34.6778 14.3571C34.6778 15.1139 35.2672 15.9077 36.3362 16.5804C39.4956 18.5627 41.4466 20.6322 42.2885 22.9165C43.5921 26.4288 41.8921 28.4333 40.2396 29.4885L39.5002 29.963L40.1491 30.5573C40.2367 30.6341 41.028 31.3304 42.1995 31.4309C42.4222 31.4457 42.6345 31.4575 42.8335 31.4575C43.5832 31.4575 44.2231 31.3393 44.7428 31.1826C44.5875 31.4525 44.4065 31.7069 44.2024 31.9424C43.2595 33.0333 42.0984 33.53 40.4281 33.5566L39.8075 33.5655L39.76 34.1864C39.7541 34.312 39.708 35.4635 40.7993 36.4421C40.9671 36.5929 41.169 36.7186 41.3813 36.8191C40.6389 37.4843 39.8877 38.6432 39.7422 40.627C39.6189 42.2826 39.2225 42.8961 39.218 42.9035L38.5321 43.9471L39.7718 43.9634C41.8192 43.9634 43.3871 43.4017 44.4724 42.2841C45.0345 41.6971 45.454 40.9897 45.6987 40.2161C46.3016 40.7279 47.0681 41.0089 47.8605 41.0084C48.4395 41.0084 48.9235 40.8857 48.9769 40.8739L49.7683 40.664L49.4194 39.9278C49.3926 39.8687 48.7334 38.3904 49.4431 36.281C49.749 35.3689 49.9049 34.5529 49.9806 33.9158C50.4795 34.176 51.1461 34.3889 52.0087 34.3918C53.9685 34.3918 54.8312 32.9328 54.8698 32.8722L55.2558 32.2011L54.5402 31.9084C52.2063 30.9416 51.6895 28.3458 51.5856 26.9414C51.7979 26.9813 52.0385 27.0182 52.3102 27.0256L52.4302 27.03Z" fill="black"/>
<path id="Vector_4" d="M75.5996 33.7642H80.0537V23.4462H86.1705V19.6914H69.4824V23.4462H75.5993L75.5996 33.7642ZM99.6815 19.6911L92.2579 27.8807V19.6911H87.9522V33.7642H91.7531L99.1768 25.5746V33.7642H103.482V19.6911H99.6815ZM111.05 28.531H117.968V33.764H122.274V19.6909H117.968V24.8352H111.05V19.6909H106.744V33.764H111.05V28.531ZM134.265 33.764C135.244 33.764 136.135 33.6753 136.967 33.4388C139.194 32.8179 140.649 31.0144 140.649 28.5605C140.649 26.2249 139.402 24.5988 137.412 23.8597C136.462 23.5049 135.334 23.4754 134.265 23.4754H129.84V19.6911H125.534V33.7641L134.265 33.764ZM129.84 26.7865H133.522C134.116 26.7865 134.68 26.7865 135.185 26.9639C135.898 27.2004 136.313 27.7917 136.313 28.5013C136.313 29.2404 135.898 29.8613 135.215 30.1569C134.74 30.3639 134.265 30.3639 133.522 30.3639H129.84V26.7865ZM147.181 28.4421H148.369L153.506 33.7639H159.237L152.081 26.4319L158.97 19.6913H153.566L148.369 24.9834H147.182V19.6913H142.876V33.7644H147.182L147.181 28.4421ZM168.097 19.3065C162.306 19.3065 158.832 22.5587 158.832 26.7568C158.832 30.9548 162.306 34.207 168.097 34.207C173.857 34.207 177.331 30.9548 177.331 26.7568C177.331 22.5587 173.857 19.3065 168.097 19.3065ZM168.097 30.7779C165.216 30.7779 163.375 29.0631 163.375 26.757C163.375 24.4509 165.216 22.7657 168.097 22.7657C170.947 22.7657 172.818 24.4509 172.818 26.757C172.818 29.0631 170.947 30.7779 168.097 30.7779ZM191.671 20.312V18.8928H187.365V20.312C181.961 20.4302 178.724 22.7067 178.724 26.7276C178.724 30.7485 181.961 32.8475 187.365 32.9657V34.3848H191.671V32.9657C197.105 32.8474 200.342 30.7483 200.342 26.7276C200.342 22.7069 197.105 20.4301 191.671 20.312ZM187.365 29.95C184.396 29.8317 183.089 28.6196 183.089 26.7274C183.089 24.8353 184.396 23.4753 187.365 23.3571V29.95ZM191.671 29.95V23.3568C194.67 23.4751 195.947 24.835 195.947 26.7272C195.947 28.6193 194.67 29.8318 191.671 29.95ZM214.666 20.312V18.8928H210.36V20.312C204.956 20.4302 201.719 22.7067 201.719 26.7276C201.719 30.7485 204.956 32.8475 210.36 32.9657V34.3848H214.666V32.9657C220.1 32.8474 223.337 30.7483 223.337 26.7276C223.337 22.7069 220.1 20.4301 214.666 20.312ZM210.36 29.95C207.391 29.8317 206.084 28.6196 206.084 26.7274C206.084 24.8353 207.391 23.4753 210.36 23.3571V29.95ZM214.666 29.95V23.3568C217.665 23.4751 218.942 24.835 218.942 26.7272C218.942 28.6193 217.665 29.8318 214.666 29.95Z" fill="white"/>
</g>
</svg>
