<svg width="18" height="17" viewBox="0 0 18 17" fill="none" xmlns="http://www.w3.org/2000/svg">
<path d="M12.5562 10.9062L12.1007 11.359C12.1007 11.359 11.0181 12.4355 8.06309 9.49722C5.10811 6.55902 6.19069 5.48258 6.19069 5.48258L6.47749 5.19739C7.18409 4.49485 7.25069 3.36692 6.63419 2.54348L5.37325 0.859079C4.61027 -0.160084 3.13595 -0.294714 2.26145 0.574828L0.691848 2.13552C0.258228 2.56668 -0.0323518 3.1256 0.0028882 3.74562C0.0930381 5.33183 0.810707 8.74472 4.81535 12.7266C9.06209 16.9492 13.0468 17.117 14.6763 16.9651C15.1917 16.9171 15.6399 16.6546 16.0011 16.2954L17.4217 14.883C18.3806 13.9295 18.1102 12.2949 16.8833 11.628L14.9728 10.5894C14.1672 10.1515 13.1858 10.2801 12.5562 10.9062Z" fill="currentColor"/>
</svg>
