<svg width="45" height="45" viewBox="0 0 45 45" fill="none" xmlns="http://www.w3.org/2000/svg">
<path d="M35.3971 29.2739C35.3633 29.201 35.3318 29.1405 35.3025 29.0921C34.8179 28.2194 33.8919 27.1482 32.5251 25.8782L32.4962 25.8491L32.4818 25.8349L32.4671 25.8203H32.4525C31.8321 25.2289 31.4393 24.8313 31.2748 24.6277C30.9738 24.2399 30.9064 23.8474 31.0709 23.4497C31.1871 23.1492 31.6237 22.5146 32.3796 21.545C32.7772 21.0312 33.0921 20.6193 33.3247 20.3091C35.0019 18.0793 35.729 16.6545 35.5059 16.034L35.4193 15.889C35.3611 15.8017 35.2108 15.7218 34.9688 15.649C34.7261 15.5763 34.416 15.5643 34.0379 15.6127L29.8501 15.6416C29.7823 15.6176 29.6854 15.6198 29.5592 15.649C29.4331 15.6781 29.3701 15.6927 29.3701 15.6927L29.2972 15.7291L29.2393 15.7729C29.1908 15.8018 29.1375 15.8527 29.0793 15.9254C29.0214 15.9979 28.973 16.083 28.9343 16.1799C28.4783 17.3529 27.9599 18.4435 27.3782 19.4516C27.0195 20.0527 26.69 20.5737 26.3892 21.0148C26.0887 21.4558 25.8367 21.7807 25.6333 21.9889C25.4295 22.1974 25.2457 22.3644 25.0806 22.4906C24.9157 22.6168 24.7898 22.6701 24.7027 22.6506C24.6154 22.6311 24.5331 22.6117 24.4552 22.5924C24.3196 22.5051 24.2105 22.3863 24.1282 22.2361C24.0456 22.0859 23.99 21.8967 23.9609 21.6689C23.932 21.441 23.9149 21.2449 23.91 21.08C23.9055 20.9154 23.9076 20.6824 23.9174 20.382C23.9275 20.0813 23.932 19.8779 23.932 19.7712C23.932 19.4028 23.9392 19.0029 23.9536 18.5716C23.9683 18.1402 23.9801 17.7984 23.9901 17.5466C24 17.2945 24.0045 17.0278 24.0045 16.7467C24.0045 16.4656 23.9874 16.2451 23.9536 16.0851C23.9202 15.9252 23.8689 15.7701 23.8013 15.6197C23.7333 15.4694 23.6338 15.3532 23.5032 15.2707C23.3724 15.1883 23.2097 15.1229 23.0161 15.0743C22.5023 14.958 21.848 14.8951 21.0529 14.8854C19.2499 14.866 18.0913 14.9824 17.5775 15.2345C17.374 15.341 17.1898 15.4865 17.025 15.6706C16.8505 15.8839 16.8262 16.0004 16.9522 16.0195C17.5339 16.1066 17.9457 16.3151 18.1881 16.6447L18.2755 16.8193C18.3434 16.9453 18.4112 17.1684 18.4791 17.4883C18.5469 17.8081 18.5907 18.1619 18.6099 18.5495C18.6583 19.2573 18.6583 19.8632 18.6099 20.3672C18.5614 20.8714 18.5155 21.2639 18.4718 21.5451C18.428 21.8262 18.3626 22.054 18.2755 22.2285C18.1881 22.4029 18.13 22.5096 18.1009 22.5483C18.0718 22.587 18.0475 22.6114 18.0283 22.621C17.9023 22.6693 17.7712 22.6939 17.6356 22.6939C17.4998 22.6939 17.3351 22.6259 17.1412 22.4901C16.9474 22.3544 16.7463 22.1679 16.5378 21.9303C16.3294 21.6927 16.0943 21.3607 15.8324 20.9342C15.5708 20.5077 15.2993 20.0036 15.0182 19.422L14.7856 19.0002C14.6402 18.7288 14.4416 18.3337 14.1895 17.8152C13.9373 17.2964 13.7144 16.7947 13.5206 16.31C13.4431 16.1064 13.3267 15.9514 13.1716 15.8448L13.0989 15.801C13.0505 15.7623 12.9728 15.7212 12.8663 15.6774C12.7596 15.6336 12.6482 15.6023 12.5318 15.583L8.54752 15.6119C8.14037 15.6119 7.86412 15.7041 7.71866 15.8884L7.66045 15.9755C7.63137 16.024 7.6167 16.1016 7.6167 16.2083C7.6167 16.3149 7.64578 16.4458 7.704 16.6008C8.28563 17.9678 8.91814 19.2861 9.60153 20.556C10.2849 21.826 10.8788 22.8489 11.3827 23.624C11.8868 24.3996 12.4006 25.1316 12.9241 25.8197C13.4476 26.508 13.7942 26.9492 13.9637 27.143C14.1335 27.3371 14.2668 27.4823 14.3637 27.5792L14.7273 27.9281C14.96 28.1608 15.3016 28.4395 15.7524 28.7642C16.2033 29.0891 16.7025 29.4089 17.2502 29.7242C17.798 30.039 18.4353 30.2959 19.1625 30.4946C19.8895 30.6935 20.5971 30.7733 21.2855 30.7348H22.9577C23.2969 30.7055 23.5538 30.5989 23.7285 30.4148L23.7863 30.3419C23.8253 30.2841 23.8617 30.1942 23.8953 30.0732C23.9293 29.9521 23.9462 29.8186 23.9462 29.6734C23.9363 29.2566 23.968 28.881 24.0405 28.5466C24.113 28.2122 24.1956 27.9602 24.288 27.7904C24.3804 27.6208 24.4846 27.4777 24.6005 27.3617C24.7168 27.2454 24.7996 27.175 24.8482 27.1507C24.8964 27.1263 24.935 27.1098 24.9641 27.0999C25.1967 27.0223 25.4705 27.0974 25.7859 27.3254C26.101 27.5533 26.3966 27.8345 26.673 28.1689C26.9493 28.5035 27.2813 28.8789 27.669 29.2957C28.0569 29.7126 28.3961 30.0225 28.6868 30.2264L28.9775 30.4009C29.1717 30.5173 29.4238 30.6239 29.734 30.7209C30.0437 30.8177 30.3151 30.842 30.5481 30.7935L34.2705 30.7355C34.6387 30.7355 34.9252 30.6745 35.1284 30.5536C35.332 30.4324 35.453 30.2989 35.492 30.1537C35.5309 30.0083 35.533 29.8434 35.4994 29.659C35.4649 29.4751 35.4309 29.3465 35.3971 29.2739Z" fill="currentColor"/>
<circle cx="22.2158" cy="22.2158" r="21.7158" stroke="currentColor"/>
</svg>
