<svg width="45" height="33" viewBox="0 0 45 33" fill="none" xmlns="http://www.w3.org/2000/svg">
<g id="Group 507">
<g id="Group 3">
<path id="M" d="M0 23.2337L7.87319 18.3708L9.92409 9.95728L13.3428 18.9852H13.4755L21.8064 9.8909L17.9157 22.0812L24.8305 23.2336L30.9671 0H23.7315L15.8321 8.99474L12.7453 0H6.2399L0 23.2337Z" fill="#7B7B7B"/>
<path id="S" d="M32.1573 32.2229C37.9325 32.2229 41.5171 27.7551 41.5171 22.9756C41.5171 19.4905 39.061 17.8642 35.4764 16.5033C32.2901 15.2421 31.5931 14.9102 31.5931 13.9808C31.5931 13.0515 32.5556 12.3213 34.1156 12.3213C36.4721 12.3213 38.4968 13.3502 40.2559 14.877L44.2388 10.4294C42.015 8.30518 38.7955 6.97754 34.713 6.97754C29.0373 6.97754 24.8553 10.2634 24.8553 14.877C24.8553 18.2956 27.2118 19.8888 30.896 21.2828C34.1488 22.5441 34.7794 23.0088 34.7794 23.9049C34.7794 24.967 33.6841 25.6308 32.1573 25.6308C29.6016 25.6308 27.0865 25.3247 24.8295 23.2337L21.1416 28.7655C23.6309 31.454 27.6101 32.2229 32.1573 32.2229Z" fill="#7B7B7B"/>
</g>
<circle id="Ellipse 1" cx="21.7455" cy="23.2441" r="6.74845" fill="#F1F6F1"/>
<path id="Star 1" d="M20.9957 17.2461L22.3425 21.391H26.7007L23.1748 23.9528L24.5216 28.0977L20.9957 25.536L17.4698 28.0977L18.8166 23.9528L15.2907 21.391H19.6489L20.9957 17.2461Z" fill="#7B7B7B"/>
</g>
</svg>
