<svg width="83" height="83" viewBox="0 0 83 83" fill="none" xmlns="http://www.w3.org/2000/svg">
<g clip-path="url(#clip0_113_1570)">
<path d="M41.5976 0L83 10.3506H0L41.5976 0Z" fill="#7D62CA"/>
<path d="M41.5976 20.7012L83 10.3506H0L41.5976 20.7012Z" fill="#7D62CA"/>
<path d="M41.5976 20.7012L83 31.0518H0L41.5976 20.7012Z" fill="#7D62CA"/>
<path d="M41.5976 41.5976L83 31.0518H0L41.5976 41.5976Z" fill="#7D62CA"/>
<path d="M41.5976 41.5977L83 51.9482H0L41.5976 41.5977Z" fill="#7D62CA"/>
<path d="M41.5976 62.2988L83 51.9482H0L41.5976 62.2988Z" fill="#7D62CA"/>
<path d="M41.5976 62.2988L83 72.6494H0L41.5976 62.2988Z" fill="#7D62CA"/>
<path d="M41.5976 83L83 72.6494H0L41.5976 83Z" fill="#7D62CA"/>
</g>
<defs>
<clipPath id="clip0_113_1570">
<rect width="83" height="83" fill="white"/>
</clipPath>
</defs>
</svg>
