<svg width="83" height="83" viewBox="0 0 83 83" fill="none" xmlns="http://www.w3.org/2000/svg">
<g clip-path="url(#clip0_113_1614)">
<path d="M0 0V5.27294C42.9647 5.27294 77.7271 40.2306 77.7271 83H83C83 37.3012 45.6988 0 0 0Z" fill="black"/>
<path d="M0 39.6448V44.9177C21.0918 44.9177 38.0824 62.1036 38.0824 83.0001H43.3553C43.3553 59.1742 24.0212 39.6448 0 39.6448Z" fill="black"/>
<path d="M0 20.1152V25.3882C31.8329 25.3882 57.6118 51.167 57.6118 82.9999H62.8847C62.8847 48.2376 34.7624 20.1152 0 20.1152Z" fill="black"/>
<path d="M0 58.0024V63.2754C10.9365 63.2754 19.92 72.2589 19.92 83.1954H25.1929C25.1929 69.1342 13.8659 58.0024 0 58.0024Z" fill="black"/>
</g>
<defs>
<clipPath id="clip0_113_1614">
<rect width="83" height="83" fill="white"/>
</clipPath>
</defs>
</svg>
