<svg width="83" height="83" viewBox="0 0 83 83" fill="none" xmlns="http://www.w3.org/2000/svg">
<g id="Frame" clip-path="url(#clip0_182_3038)">
<g id="XMLID_1_">
<path id="XMLID_14_" d="M82.2188 33.3953H0.781195C0.585901 34.567 0.390607 35.7388 0.195312 36.9106H82.6094C82.6094 35.7388 82.4141 34.567 82.2188 33.3953Z" fill="white"/>
<path id="XMLID_13_" d="M83 39.84H0C0 40.4258 0 41.0117 0 41.5976C0 42.1835 0 42.7694 0 43.3553H82.8047C82.8047 42.7694 82.8047 42.1835 82.8047 41.5976C83 41.0117 83 40.4258 83 39.84Z" fill="white"/>
<path id="XMLID_12_" d="M77.3368 20.7012H5.6639C5.07801 21.8729 4.49213 23.0447 3.90625 24.2165H79.2898C78.7039 22.8494 77.9227 21.6776 77.3368 20.7012Z" fill="white"/>
<path id="XMLID_11_" d="M80.4613 26.9506H2.73426C2.14838 28.1223 1.95309 29.2941 1.5625 30.4659H81.6331C81.2425 29.2941 80.8519 28.1223 80.4613 26.9506Z" fill="white"/>
<path id="XMLID_10_" d="M0.781195 49.6046H82.2188C82.4141 48.4329 82.6094 47.2611 82.8047 46.0894H0.195312C0.390607 47.2611 0.585901 48.4329 0.781195 49.6046Z" fill="white"/>
<path id="XMLID_9_" d="M2.73426 56.0495H80.4613C80.8519 54.8777 81.2425 53.7059 81.6331 52.5342H1.5625C1.95309 53.7059 2.14838 54.8777 2.73426 56.0495Z" fill="white"/>
<path id="XMLID_8_" d="M41.5977 83C48.6283 83 55.2683 81.2424 61.1272 78.1177H21.873C27.7319 81.2424 34.3719 83 41.5977 83Z" fill="white"/>
<path id="XMLID_7_" d="M10.3503 68.7436H72.8444C73.8209 67.5718 74.7974 66.4 75.5786 65.2283H7.61621C8.39739 66.5953 9.37386 67.7671 10.3503 68.7436Z" fill="white"/>
<path id="XMLID_6_" d="M5.6639 62.4942H77.3368C77.9227 61.3224 78.5086 60.1506 79.0945 58.9789H3.90625C4.49213 60.1506 5.07801 61.3224 5.6639 62.4942Z" fill="white"/>
<path id="XMLID_5_" d="M17.3814 75.1883H65.8144C67.3767 74.2118 68.7438 73.04 69.9155 71.673H13.085C14.452 73.04 15.8191 74.2118 17.3814 75.1883Z" fill="white"/>
<path id="XMLID_4_" d="M72.8444 14.2565H10.3503C9.37386 15.4282 8.39739 16.6 7.61621 17.7718H75.5786C74.6021 16.4047 73.8209 15.4282 72.8444 14.2565Z" fill="white"/>
<path id="XMLID_3_" d="M41.5978 0C34.5672 0 27.9272 1.75765 22.0684 4.88235H61.3225C55.2684 1.75765 48.6284 0 41.5978 0Z" fill="white"/>
<path id="XMLID_2_" d="M65.8144 7.81177H17.3814C15.8191 8.98353 14.452 10.1553 13.085 11.3271H69.9155C68.5485 10.1553 67.1814 8.98353 65.8144 7.81177Z" fill="white"/>
</g>
</g>
<defs>
<clipPath id="clip0_182_3038">
<rect width="83" height="83" fill="white"/>
</clipPath>
</defs>
</svg>
