<svg width="83" height="83" viewBox="0 0 83 83" fill="none" xmlns="http://www.w3.org/2000/svg">
<g id="Frame" clip-path="url(#clip0_182_2957)">
<g id="XMLID_1_">
<path id="XMLID_2_" d="M83 39.6447H51.3624L80.6565 27.3412L79.0941 23.8259L49.8 35.9341L72.2588 13.4753L69.5247 10.7412L47.0659 33.2L59.1741 3.90588L55.6588 2.34353L43.5506 31.6376V0H39.6447V31.6376L27.3412 2.34353L23.8259 3.90588L35.9341 33.2L13.4753 10.7412L10.7412 13.4753L33.2 35.9341L3.90588 23.8259L2.34353 27.3412L31.6376 39.6447H0V43.5506H31.6376L2.34353 55.6588L3.90588 59.1741L33.2 47.0659L10.7412 69.5247L13.4753 72.2588L35.9341 49.8L23.8259 79.0941L27.3412 80.6565L39.6447 51.3624V83H43.5506V51.3624L55.6588 80.6565L59.1741 79.0941L47.0659 49.8L69.5247 72.2588L72.2588 69.5247L49.8 47.0659L79.0941 59.1741L80.6565 55.6588L51.3624 43.5506H83V39.6447Z" fill="white"/>
</g>
</g>
<defs>
<clipPath id="clip0_182_2957">
<rect width="83" height="83" fill="white"/>
</clipPath>
</defs>
</svg>
