<svg width="83" height="83" viewBox="0 0 83 83" fill="none" xmlns="http://www.w3.org/2000/svg">
<g id="Frame" clip-path="url(#clip0_182_3057)">
<g id="XMLID_1_">
<path id="XMLID_5_" d="M0 0V5.27294C42.9647 5.27294 77.7271 40.2306 77.7271 83H83C83 37.3012 45.6988 0 0 0Z" fill="white"/>
<path id="XMLID_4_" d="M0 39.6447V44.9176C21.0918 44.9176 38.0824 62.1035 38.0824 82.9999H43.3553C43.3553 59.1741 24.0212 39.6447 0 39.6447Z" fill="white"/>
<path id="XMLID_3_" d="M0 20.1152V25.3882C31.8329 25.3882 57.6118 51.167 57.6118 82.9999H62.8847C62.8847 48.2376 34.7624 20.1152 0 20.1152Z" fill="white"/>
<path id="XMLID_2_" d="M0 58.0023V63.2753C10.9365 63.2753 19.92 72.2588 19.92 83.1953H25.1929C25.1929 69.1341 13.8659 58.0023 0 58.0023Z" fill="white"/>
</g>
</g>
<defs>
<clipPath id="clip0_182_3057">
<rect width="83" height="83" fill="white"/>
</clipPath>
</defs>
</svg>
