<svg width="83" height="83" viewBox="0 0 83 83" fill="none" xmlns="http://www.w3.org/2000/svg">
<g id="Frame" clip-path="url(#clip0_182_2964)">
<g id="XMLID_1_">
<g id="XMLID_11_">
<path id="XMLID_13_" d="M41.5976 0L83 10.3506H0L41.5976 0Z" fill="white"/>
<path id="XMLID_12_" d="M41.5976 20.7012L83 10.3506H0L41.5976 20.7012Z" fill="white"/>
</g>
<g id="XMLID_8_">
<path id="XMLID_10_" d="M41.5976 20.7012L83 31.0518H0L41.5976 20.7012Z" fill="white"/>
<path id="XMLID_9_" d="M41.5976 41.5976L83 31.0518H0L41.5976 41.5976Z" fill="white"/>
</g>
<g id="XMLID_5_">
<path id="XMLID_7_" d="M41.5976 41.5977L83 51.9482H0L41.5976 41.5977Z" fill="white"/>
<path id="XMLID_6_" d="M41.5976 62.2988L83 51.9482H0L41.5976 62.2988Z" fill="white"/>
</g>
<g id="XMLID_2_">
<path id="XMLID_4_" d="M41.5976 62.2988L83 72.6494H0L41.5976 62.2988Z" fill="white"/>
<path id="XMLID_3_" d="M41.5976 83L83 72.6494H0L41.5976 83Z" fill="white"/>
</g>
</g>
</g>
<defs>
<clipPath id="clip0_182_2964">
<rect width="83" height="83" fill="white"/>
</clipPath>
</defs>
</svg>
