<svg width="83" height="45" viewBox="0 0 83 45" fill="none" xmlns="http://www.w3.org/2000/svg">
<g id="Frame" clip-path="url(#clip0_182_2983)">
<path id="XMLID_1_" d="M51.3624 40.091L80.6565 27.6489L79.0941 24.0941L49.8 36.3386L72.2588 13.627L69.5247 10.8621L47.0659 33.5737L59.1741 3.94985L55.6588 2.36991L43.5506 31.9938V0H39.6447V31.9938L27.3412 2.36991L23.8259 3.94985L35.9341 33.5737L13.4753 10.8621L10.7412 13.627L33.2 36.3386L3.90588 24.0941L2.34353 27.6489L31.6376 40.091H0V44.0408H31.6376H36.7153H38.6682H39.6447H40.2306H40.6212H41.2071H41.9882H42.3788H42.7694H43.5506H44.5271H46.2847H51.3624H83V40.091H51.3624Z" fill="white"/>
</g>
<defs>
<clipPath id="clip0_182_2983">
<rect width="83" height="44.0408" fill="white"/>
</clipPath>
</defs>
</svg>
