<svg width="83" height="83" viewBox="0 0 83 83" fill="none" xmlns="http://www.w3.org/2000/svg">
<g id="Frame" clip-path="url(#clip0_182_2949)">
<g id="XMLID_1_">
<path id="XMLID_3_" d="M41.5976 62.2988C53.12 62.2988 62.2988 52.9247 62.2988 41.5976C62.2988 30.0753 52.9247 20.8965 41.5976 20.8965C30.0753 20.8965 20.8965 30.2706 20.8965 41.5976H0C0 18.5529 18.5529 0 41.5976 0C64.4471 0 83 18.5529 83 41.5976C83 64.4471 64.4471 83.1953 41.4024 83.1953V62.2988H41.5976Z" fill="white"/>
<path id="XMLID_2_" d="M20.7012 82.8047C20.7012 83 20.7012 83 20.7012 82.8047L0 83C0 83 0 83 0 82.8047C0 59.9553 18.5529 41.207 41.5976 41.207V61.9082C30.0753 62.1035 20.7012 71.4776 20.7012 82.8047Z" fill="white"/>
</g>
</g>
<defs>
<clipPath id="clip0_182_2949">
<rect width="83" height="83" fill="white"/>
</clipPath>
</defs>
</svg>
