<svg width="83" height="83" viewBox="0 0 83 83" fill="none" xmlns="http://www.w3.org/2000/svg">
<g clip-path="url(#clip0_113_1607)">
<path d="M51.3624 59.091L80.6565 46.6489L79.0941 43.0941L49.8 55.3386L72.2588 32.627L69.5247 29.8621L47.0659 52.5737L59.1741 22.9498L55.6588 21.3699L43.5506 50.9938V19H39.6447V50.9938L27.3412 21.3699L23.8259 22.9498L35.9341 52.5737L13.4753 29.8621L10.7412 32.627L33.2 55.3386L3.90588 43.0941L2.34353 46.6489L31.6376 59.091H0V63.0408H31.6376H36.7153H38.6682H39.6447H40.2306H40.6212H41.2071H41.9882H42.3788H42.7694H43.5506H44.5271H46.2847H51.3624H83V59.091H51.3624Z" fill="#7D62CA"/>
</g>
<defs>
<clipPath id="clip0_113_1607">
<rect width="83" height="44.0408" fill="white" transform="translate(0 19)"/>
</clipPath>
</defs>
</svg>
