<svg width="83" height="83" viewBox="0 0 83 83" fill="none" xmlns="http://www.w3.org/2000/svg">
<g clip-path="url(#clip0_113_1588)">
<path d="M82.2188 33.3953H0.781195C0.585901 34.567 0.390607 35.7388 0.195312 36.9106H82.6094C82.6094 35.7388 82.4141 34.567 82.2188 33.3953Z" fill="#4AB46A"/>
<path d="M83 39.8401H0C0 40.426 0 41.0119 0 41.5977C0 42.1836 0 42.7695 0 43.3554H82.8047C82.8047 42.7695 82.8047 42.1836 82.8047 41.5977C83 41.0119 83 40.426 83 39.8401Z" fill="#4AB46A"/>
<path d="M77.3363 20.7012H5.66341C5.07753 21.8729 4.49164 23.0447 3.90576 24.2165H79.2893C78.7034 22.8494 77.9222 21.6776 77.3363 20.7012Z" fill="#4AB46A"/>
<path d="M80.4611 26.9507H2.73402C2.14814 28.1224 1.95284 29.2942 1.56226 30.466H81.6328C81.2423 29.2942 80.8517 28.1224 80.4611 26.9507Z" fill="#4AB46A"/>
<path d="M0.781195 49.6046H82.2188C82.4141 48.4329 82.6094 47.2611 82.8047 46.0894H0.195312C0.390607 47.2611 0.585901 48.4329 0.781195 49.6046Z" fill="#4AB46A"/>
<path d="M2.73402 56.0495H80.4611C80.8517 54.8777 81.2423 53.7059 81.6328 52.5342H1.56226C1.95284 53.7059 2.14814 54.8777 2.73402 56.0495Z" fill="#4AB46A"/>
<path d="M41.5977 83C48.6283 83 55.2683 81.2424 61.1272 78.1177H21.873C27.7319 81.2424 34.3719 83 41.5977 83Z" fill="#4AB46A"/>
<path d="M10.3506 68.7436H72.8447C73.8212 67.5718 74.7976 66.4 75.5788 65.2283H7.61646C8.39763 66.5953 9.3741 67.7671 10.3506 68.7436Z" fill="#4AB46A"/>
<path d="M5.66341 62.4941H77.3363C77.9222 61.3223 78.5081 60.1505 79.094 58.9788H3.90576C4.49164 60.1505 5.07753 61.3223 5.66341 62.4941Z" fill="#4AB46A"/>
<path d="M17.3812 75.1881H65.8141C67.3765 74.2117 68.7435 73.0399 69.9153 71.6729H13.0847C14.4518 73.0399 15.8188 74.2117 17.3812 75.1881Z" fill="#4AB46A"/>
<path d="M72.8447 14.2566H10.3506C9.3741 15.4284 8.39763 16.6001 7.61646 17.7719H75.5788C74.6023 16.4048 73.8212 15.4284 72.8447 14.2566Z" fill="#4AB46A"/>
<path d="M41.5975 0C34.5669 0 27.9269 1.75765 22.0681 4.88235H61.3222C55.2681 1.75765 48.6281 0 41.5975 0Z" fill="#4AB46A"/>
<path d="M65.8141 7.81177H17.3812C15.8188 8.98353 14.4518 10.1553 13.0847 11.3271H69.9153C68.5482 10.1553 67.1812 8.98353 65.8141 7.81177Z" fill="#4AB46A"/>
</g>
<defs>
<clipPath id="clip0_113_1588">
<rect width="83" height="83" fill="white"/>
</clipPath>
</defs>
</svg>
