<svg width="65" height="84" viewBox="0 0 65 84" fill="none" xmlns="http://www.w3.org/2000/svg">
<path d="M65 32.3898C65 50.2782 32.5 84 32.5 84C32.5 84 0 50.2782 0 32.3898C0 14.5014 14.5507 0 32.5 0C50.4493 0 65 14.5014 65 32.3898Z" fill="#74BE8B"/>
<path d="M52.3653 17.4633L51.8319 16.5205H51.3419V17.4633H51.0814V15.2925H51.9466C52.1575 15.2925 52.326 15.3504 52.4521 15.4662C52.5803 15.5819 52.6444 15.7287 52.6444 15.9065C52.6444 16.0574 52.5968 16.1867 52.5017 16.2942C52.4087 16.4017 52.2795 16.472 52.1141 16.505L52.6568 17.4633H52.3653ZM51.3419 15.522V16.2911H51.9001C52.0552 16.2911 52.1741 16.258 52.2568 16.1918C52.3415 16.1257 52.3839 16.0306 52.3839 15.9065C52.3839 15.7825 52.3415 15.6874 52.2568 15.6212C52.1741 15.5551 52.0552 15.522 51.9001 15.522H51.3419Z" fill="white"/>
<path fill-rule="evenodd" clip-rule="evenodd" d="M51.8111 18.0713C52.7514 18.0713 53.5137 17.309 53.5137 16.3687C53.5137 15.4284 52.7514 14.6661 51.8111 14.6661C50.8708 14.6661 50.1085 15.4284 50.1085 16.3687C50.1085 17.309 50.8708 18.0713 51.8111 18.0713ZM51.8111 18.5578C53.0201 18.5578 54.0001 17.5777 54.0001 16.3687C54.0001 15.1598 53.0201 14.1797 51.8111 14.1797C50.6021 14.1797 49.6221 15.1598 49.6221 16.3687C49.6221 17.5777 50.6021 18.5578 51.8111 18.5578Z" fill="white"/>
<path fill-rule="evenodd" clip-rule="evenodd" d="M50 31.4308L47.249 31.4308V32C47.249 34.0025 46.8546 35.9854 46.0883 37.8355C45.3219 39.6856 44.1987 41.3667 42.7827 42.7827C41.3667 44.1987 39.6856 45.3219 37.8355 46.0882C35.9854 46.8546 34.0025 47.249 32 47.249H31.4308V50L29.249 50C27.2465 50 25.2636 49.6056 23.4135 48.8392C21.5634 48.0729 19.8823 46.9497 18.4663 45.5337C17.0503 44.1177 15.9271 42.4366 15.1608 40.5865C14.3944 38.7364 14 36.7535 14 34.751V32.5692H16.751V32C16.751 29.9975 17.1454 28.0146 17.9117 26.1645C18.6781 24.3144 19.8013 22.6333 21.2173 21.2173C22.6333 19.8013 24.3144 18.6781 26.1645 17.9118C28.0146 17.1454 29.9975 16.751 32 16.751H32.5692V14L34.751 14C36.7535 14 38.7364 14.3944 40.5865 15.1608C42.4366 15.9271 44.1177 17.0503 45.5337 18.4663C46.9497 19.8823 48.0729 21.5634 48.8392 23.4135C49.6056 25.2636 50 27.2465 50 29.249V31.4308ZM34.1818 20.393V23.144H32C30.837 23.144 29.6854 23.3731 28.611 23.8181C27.5365 24.2632 26.5602 24.9155 25.7379 25.7379C24.9155 26.5602 24.2632 27.5365 23.8181 28.611C23.3731 29.6854 23.144 30.837 23.144 32V34.1818H20.393V34.751C20.393 35.914 20.6221 37.0656 21.0671 38.14C21.5122 39.2145 22.1645 40.1908 22.9869 41.0131C23.8092 41.8355 24.7855 42.4878 25.86 42.9329C26.9344 43.3779 28.086 43.607 29.249 43.607H29.8182V40.856H32C33.163 40.856 34.3146 40.6269 35.389 40.1819C36.4635 39.7368 37.4398 39.0845 38.2621 38.2621C39.0845 37.4398 39.7368 36.4635 40.1819 35.389C40.6269 34.3146 40.856 33.163 40.856 32V29.8182H43.607V29.249C43.607 28.086 43.3779 26.9344 42.9329 25.86C42.4878 24.7855 41.8355 23.8092 41.0131 22.9869C40.1908 22.1645 39.2145 21.5122 38.14 21.0671C37.0656 20.6221 35.914 20.393 34.751 20.393H34.1818Z" fill="white"/>
</svg>
