<svg width="71" height="70" viewBox="0 0 71 70" fill="none" xmlns="http://www.w3.org/2000/svg">
<circle cx="35.5" cy="35" r="34" fill="#3F53B9" stroke="#F1F6F1" stroke-width="2"/>
<g clip-path="url(#clip0_108_235)">
<path d="M55.284 45.8665C55.2356 45.7621 55.1905 45.6755 55.1485 45.6061C54.4545 44.3562 53.1283 42.822 51.1707 41.0031L51.1293 40.9615L51.1086 40.9411L51.0877 40.9201H51.0667C50.1782 40.0732 49.6156 39.5037 49.3799 39.2121C48.9488 38.6567 48.8523 38.0945 49.0879 37.5249C49.2543 37.0945 49.8796 36.1856 50.9623 34.797C51.5317 34.061 51.9828 33.4712 52.3158 33.0268C54.718 29.8333 55.7594 27.7926 55.4399 26.9039L55.3158 26.6962C55.2325 26.5712 55.0173 26.4568 54.6706 26.3525C54.3231 26.2484 53.8789 26.2312 53.3373 26.3006L47.3395 26.342C47.2423 26.3076 47.1035 26.3108 46.9228 26.3525C46.7422 26.3942 46.6519 26.4151 46.6519 26.4151L46.5476 26.4673L46.4647 26.53C46.3952 26.5714 46.3189 26.6443 46.2355 26.7484C46.1526 26.8522 46.0832 26.9741 46.0278 27.1129C45.3747 28.7929 44.6323 30.3548 43.7991 31.7987C43.2853 32.6597 42.8135 33.4058 42.3826 34.0376C41.9523 34.6692 41.5913 35.1345 41.3 35.4328C41.0082 35.7313 40.7449 35.9705 40.5084 36.1512C40.2722 36.332 40.092 36.4083 39.9672 36.3804C39.8421 36.3525 39.7243 36.3247 39.6127 36.297C39.4185 36.172 39.2622 36.002 39.1444 35.7868C39.0261 35.5716 38.9465 35.3007 38.9048 34.9744C38.8634 34.6479 38.8389 34.3671 38.8319 34.131C38.8254 33.8952 38.8284 33.5616 38.8424 33.1312C38.8569 32.7006 38.8634 32.4093 38.8634 32.2565C38.8634 31.7288 38.8737 31.1561 38.8943 30.5383C38.9153 29.9204 38.9323 29.4309 38.9465 29.0703C38.9607 28.7093 38.9673 28.3273 38.9673 27.9247C38.9673 27.522 38.9427 27.2062 38.8943 26.977C38.8465 26.7481 38.773 26.526 38.6762 26.3105C38.5788 26.0954 38.4363 25.9289 38.2493 25.8107C38.0619 25.6927 37.8289 25.599 37.5516 25.5294C36.8157 25.3629 35.8785 25.2728 34.7398 25.2588C32.1575 25.2311 30.4982 25.3979 29.7623 25.7589C29.4708 25.9114 29.2069 26.1198 28.971 26.3834C28.721 26.689 28.6862 26.8557 28.8666 26.8832C29.6998 27.008 30.2896 27.3065 30.6368 27.7786L30.7619 28.0287C30.8592 28.2092 30.9564 28.5287 31.0536 28.9868C31.1507 29.4448 31.2133 29.9516 31.2409 30.5067C31.3102 31.5204 31.3102 32.3882 31.2409 33.11C31.1714 33.8322 31.1057 34.3944 31.0431 34.797C30.9804 35.1997 30.8868 35.526 30.7619 35.7758C30.6368 36.0257 30.5536 36.1785 30.5118 36.2339C30.4702 36.2894 30.4355 36.3243 30.4079 36.338C30.2274 36.4072 30.0397 36.4424 29.8455 36.4424C29.6509 36.4424 29.415 36.3451 29.1374 36.1506C28.8598 35.9561 28.5718 35.689 28.2732 35.3488C27.9747 35.0085 27.6379 34.533 27.2629 33.9221C26.8882 33.3113 26.4994 32.5894 26.0968 31.7563L25.7636 31.1522C25.5554 30.7635 25.2709 30.1976 24.9099 29.455C24.5486 28.712 24.2294 27.9934 23.9518 27.2992C23.8409 27.0076 23.6742 26.7856 23.4521 26.6329L23.3478 26.5702C23.2785 26.5148 23.1673 26.4559 23.0147 26.3932C22.8619 26.3305 22.7024 26.2856 22.5357 26.258L16.8292 26.2994C16.2461 26.2994 15.8505 26.4315 15.6421 26.6953L15.5588 26.8201C15.5171 26.8897 15.4961 27.0007 15.4961 27.1535C15.4961 27.3062 15.5377 27.4937 15.6211 27.7157C16.4542 29.6735 17.3601 31.5617 18.3388 33.3805C19.3176 35.1993 20.1682 36.6644 20.8899 37.7745C21.6119 38.8854 22.3477 39.9338 23.0976 40.9193C23.8474 41.9052 24.3437 42.537 24.5865 42.8145C24.8296 43.0926 25.0206 43.3005 25.1594 43.4393L25.6802 43.939C26.0134 44.2723 26.5027 44.6715 27.1483 45.1365C27.7941 45.6018 28.5091 46.0599 29.2935 46.5115C30.0781 46.9624 30.9909 47.3303 32.0323 47.6149C33.0736 47.8997 34.0871 48.014 35.0729 47.9589H37.468C37.9538 47.9169 38.3218 47.7642 38.5719 47.5006L38.6548 47.3962C38.7105 47.3133 38.7626 47.1846 38.8108 47.0113C38.8595 46.8378 38.8837 46.6466 38.8837 46.4386C38.8695 45.8417 38.915 45.3038 39.0188 44.8248C39.1226 44.346 39.2409 43.985 39.3733 43.7419C39.5055 43.499 39.6548 43.294 39.8209 43.1278C39.9873 42.9613 40.1059 42.8604 40.1755 42.8257C40.2447 42.7907 40.2999 42.767 40.3415 42.7528C40.6748 42.6418 41.0669 42.7493 41.5186 43.0759C41.9699 43.4022 42.3932 43.805 42.7891 44.2838C43.1849 44.7631 43.6603 45.3008 44.2156 45.8977C44.7712 46.4948 45.257 46.9387 45.6734 47.2307L46.0898 47.4806C46.3678 47.6473 46.7288 47.8001 47.1732 47.9389C47.6168 48.0776 48.0054 48.1124 48.3392 48.043L53.6705 47.9598C54.1978 47.9598 54.6081 47.8725 54.8992 47.6993C55.1908 47.5257 55.3641 47.3345 55.4199 47.1266C55.4757 46.9184 55.4787 46.6822 55.4305 46.4181C55.3811 46.1547 55.3325 45.9705 55.284 45.8665Z" fill="white"/>
</g>
<defs>
<clipPath id="clip0_108_235">
<rect width="40" height="40" fill="white" transform="translate(15.4961 16.6665)"/>
</clipPath>
</defs>
</svg>
