<svg width="35" height="35" viewBox="0 0 35 35" fill="none" xmlns="http://www.w3.org/2000/svg">
<circle cx="17.7668" cy="17.1534" r="16.1534" fill="#3F53B9" stroke="white" stroke-width="2"/>
<g clip-path="url(#clip0_113_1500)">
<path d="M27.4629 22.4786C27.4392 22.4274 27.4171 22.385 27.3965 22.351C27.0564 21.7384 26.4064 20.9865 25.447 20.0951L25.4267 20.0747L25.4165 20.0647L25.4063 20.0544H25.396C24.9606 19.6393 24.6848 19.3602 24.5693 19.2173C24.3581 18.9451 24.3107 18.6696 24.4262 18.3904C24.5078 18.1795 24.8142 17.7341 25.3448 17.0535C25.6239 16.6928 25.845 16.4037 26.0082 16.186C27.1855 14.6208 27.6959 13.6207 27.5393 13.1851L27.4785 13.0833C27.4376 13.0221 27.3322 12.966 27.1623 12.9149C26.9919 12.8639 26.7743 12.8554 26.5088 12.8894L23.5693 12.9097C23.5217 12.8929 23.4537 12.8944 23.3651 12.9149C23.2766 12.9353 23.2324 12.9456 23.2324 12.9456L23.1812 12.9712L23.1406 13.0019C23.1066 13.0222 23.0691 13.0579 23.0283 13.1089C22.9876 13.1598 22.9536 13.2195 22.9264 13.2876C22.6064 14.1109 22.2426 14.8764 21.8342 15.5841C21.5824 16.006 21.3512 16.3717 21.14 16.6813C20.9291 16.9909 20.7522 17.2189 20.6094 17.3651C20.4664 17.5114 20.3373 17.6286 20.2214 17.7172C20.1057 17.8058 20.0174 17.8432 19.9562 17.8295C19.8949 17.8158 19.8371 17.8022 19.7825 17.7887C19.6873 17.7274 19.6107 17.6441 19.553 17.5386C19.495 17.4331 19.4559 17.3004 19.4355 17.1405C19.4152 16.9805 19.4032 16.8428 19.3998 16.7271C19.3966 16.6115 19.3981 16.448 19.405 16.2371C19.412 16.0261 19.4152 15.8833 19.4152 15.8084C19.4152 15.5498 19.4203 15.2691 19.4304 14.9663C19.4407 14.6635 19.449 14.4236 19.456 14.2469C19.4629 14.0699 19.4661 13.8828 19.4661 13.6854C19.4661 13.4881 19.4541 13.3333 19.4304 13.221C19.4069 13.1088 19.3709 12.9999 19.3235 12.8943C19.2758 12.7889 19.2059 12.7073 19.1142 12.6494C19.0224 12.5915 18.9082 12.5456 18.7723 12.5115C18.4116 12.4299 17.9524 12.3858 17.3943 12.3789C16.1287 12.3653 15.3155 12.447 14.9548 12.624C14.8119 12.6987 14.6826 12.8009 14.567 12.9301C14.4445 13.0798 14.4274 13.1615 14.5159 13.175C14.9242 13.2361 15.2133 13.3825 15.3834 13.6138L15.4447 13.7364C15.4924 13.8248 15.54 13.9814 15.5877 14.2059C15.6353 14.4304 15.666 14.6788 15.6795 14.9509C15.7134 15.4477 15.7134 15.873 15.6795 16.2267C15.6454 16.5807 15.6132 16.8562 15.5825 17.0535C15.5518 17.2509 15.5059 17.4108 15.4447 17.5332C15.3834 17.6557 15.3426 17.7306 15.3222 17.7577C15.3017 17.7849 15.2847 17.802 15.2712 17.8088C15.1828 17.8426 15.0908 17.8599 14.9956 17.8599C14.9002 17.8599 14.7846 17.8122 14.6486 17.7169C14.5125 17.6216 14.3714 17.4907 14.225 17.3239C14.0787 17.1572 13.9137 16.9241 13.7299 16.6247C13.5462 16.3254 13.3557 15.9716 13.1584 15.5633L12.9951 15.2672C12.893 15.0767 12.7536 14.7994 12.5767 14.4354C12.3996 14.0713 12.2432 13.7191 12.1071 13.3789C12.0527 13.236 11.9711 13.1272 11.8622 13.0523L11.8111 13.0216C11.7772 12.9944 11.7226 12.9656 11.6478 12.9348C11.5729 12.9041 11.4948 12.8821 11.4131 12.8686L8.61638 12.8889C8.33059 12.8889 8.13669 12.9536 8.03458 13.0829L7.99372 13.1441C7.97331 13.1782 7.96301 13.2326 7.96301 13.3075C7.96301 13.3823 7.98343 13.4742 8.02429 13.583C8.43255 14.5425 8.87653 15.4679 9.35623 16.3593C9.83592 17.2507 10.2528 17.9687 10.6065 18.5128C10.9603 19.0572 11.321 19.5711 11.6885 20.054C12.0559 20.5372 12.2992 20.8468 12.4182 20.9829C12.5373 21.1191 12.6309 21.221 12.699 21.2891L12.9542 21.534C13.1175 21.6973 13.3573 21.8929 13.6737 22.1209C13.9902 22.3489 14.3406 22.5734 14.7251 22.7947C15.1096 23.0157 15.5569 23.196 16.0673 23.3355C16.5777 23.4751 17.0744 23.5311 17.5575 23.5041H18.7314C18.9694 23.4835 19.1498 23.4087 19.2724 23.2795L19.313 23.2283C19.3403 23.1877 19.3659 23.1246 19.3894 23.0397C19.4133 22.9547 19.4252 22.861 19.4252 22.759C19.4182 22.4665 19.4405 22.2028 19.4914 21.9681C19.5423 21.7334 19.6003 21.5565 19.6651 21.4374C19.7299 21.3183 19.8031 21.2178 19.8845 21.1364C19.9661 21.0548 20.0242 21.0053 20.0583 20.9883C20.0922 20.9712 20.1192 20.9596 20.1397 20.9526C20.303 20.8982 20.4952 20.9509 20.7165 21.111C20.9377 21.2709 21.1452 21.4683 21.3392 21.703C21.5332 21.9379 21.7662 22.2014 22.0383 22.4939C22.3106 22.7866 22.5487 23.0041 22.7528 23.1472L22.9568 23.2697C23.0931 23.3514 23.27 23.4263 23.4878 23.4943C23.7052 23.5623 23.8957 23.5793 24.0593 23.5453L26.6721 23.5046C26.9306 23.5046 27.1317 23.4618 27.2743 23.3769C27.4172 23.2918 27.5021 23.1981 27.5295 23.0962C27.5568 22.9942 27.5583 22.8784 27.5347 22.749C27.5105 22.6199 27.4867 22.5296 27.4629 22.4786Z" fill="white"/>
</g>
<defs>
<clipPath id="clip0_113_1500">
<rect width="19.6038" height="19.6038" fill="white" transform="translate(7.96301 8.16797)"/>
</clipPath>
</defs>
</svg>
