<svg width="35" height="35" viewBox="0 0 35 35" fill="none" xmlns="http://www.w3.org/2000/svg">
<circle cx="17.1534" cy="17.1534" r="17.1534" fill="#4AB46A"/>
<g clip-path="url(#clip0_113_1492)">
<path d="M17.1559 7.35156H17.151C11.7465 7.35156 7.35158 11.7477 7.35158 17.1535C7.34822 19.218 8.00175 21.2301 9.21762 22.8986L7.99605 26.54L11.7637 25.3356C13.3618 26.3959 15.238 26.9595 17.1559 26.9554C22.5605 26.9554 26.9554 22.558 26.9554 17.1535C26.9554 11.7489 22.5605 7.35156 17.1559 7.35156ZM22.8594 21.1931C22.623 21.8608 21.6844 22.4147 20.9358 22.5764C20.4237 22.6854 19.7547 22.7724 17.5027 21.8388C14.6221 20.6454 12.7671 17.7183 12.6226 17.5284C12.4841 17.3385 11.4586 15.9785 11.4586 14.5719C11.4586 13.1653 12.1729 12.4804 12.4608 12.1864C12.6973 11.945 13.0881 11.8347 13.4631 11.8347C13.5844 11.8347 13.6934 11.8408 13.7914 11.8457C14.0794 11.858 14.2239 11.8751 14.4139 12.3297C14.6503 12.8994 15.2262 14.306 15.2948 14.4506C15.3646 14.5952 15.4345 14.7912 15.3365 14.9811C15.2446 15.1772 15.1637 15.2642 15.0191 15.4308C14.8745 15.5974 14.7373 15.7248 14.5927 15.9037C14.4604 16.0593 14.3109 16.226 14.4776 16.5139C14.6442 16.7957 15.2201 17.7355 16.0679 18.4902C17.1621 19.4643 18.0491 19.7755 18.3665 19.9078C18.6029 20.0058 18.8848 19.9826 19.0575 19.7988C19.2768 19.5623 19.5476 19.1702 19.8233 18.7843C20.0193 18.5074 20.2668 18.4731 20.5266 18.5711C20.7912 18.663 22.1917 19.3552 22.4796 19.4986C22.7675 19.6432 22.9574 19.7118 23.0273 19.8331C23.0959 19.9544 23.0959 20.5241 22.8594 21.1931Z" fill="white"/>
</g>
<defs>
<clipPath id="clip0_113_1492">
<rect width="19.6038" height="19.6038" fill="white" transform="translate(7.35156 7.35156)"/>
</clipPath>
</defs>
</svg>
