<svg width="71" height="70" viewBox="0 0 71 70" fill="none" xmlns="http://www.w3.org/2000/svg">
<circle cx="35.5" cy="35" r="35" fill="#4AB46A"/>
<g clip-path="url(#clip0_108_226)">
<path d="M35.506 15H35.496C24.4685 15 15.501 23.97 15.501 35C15.4942 39.2125 16.8276 43.318 19.3085 46.7225L16.816 54.1525L24.5035 51.695C27.7644 53.8584 31.5927 55.0084 35.506 55C46.5335 55 55.501 46.0275 55.501 35C55.501 23.9725 46.5335 15 35.506 15ZM47.1435 43.2425C46.661 44.605 44.746 45.735 43.2185 46.065C42.1735 46.2875 40.8085 46.465 36.2135 44.56C30.336 42.125 26.551 36.1525 26.256 35.765C25.9735 35.3775 23.881 32.6025 23.881 29.7325C23.881 26.8625 25.3385 25.465 25.926 24.865C26.4085 24.3725 27.206 24.1475 27.971 24.1475C28.2185 24.1475 28.441 24.16 28.641 24.17C29.2285 24.195 29.5235 24.23 29.911 25.1575C30.3935 26.32 31.5685 29.19 31.7085 29.485C31.851 29.78 31.9935 30.18 31.7935 30.5675C31.606 30.9675 31.441 31.145 31.146 31.485C30.851 31.825 30.571 32.085 30.276 32.45C30.006 32.7675 29.701 33.1075 30.041 33.695C30.381 34.27 31.556 36.1875 33.286 37.7275C35.5185 39.715 37.3285 40.35 37.976 40.62C38.4585 40.82 39.0335 40.7725 39.386 40.3975C39.8335 39.915 40.386 39.115 40.9485 38.3275C41.3485 37.7625 41.8535 37.6925 42.3835 37.8925C42.9235 38.08 45.781 39.4925 46.3685 39.785C46.956 40.08 47.3435 40.22 47.486 40.4675C47.626 40.715 47.626 41.8775 47.1435 43.2425Z" fill="white"/>
</g>
<defs>
<clipPath id="clip0_108_226">
<rect width="40" height="40" fill="white" transform="translate(15.501 15)"/>
</clipPath>
</defs>
</svg>
