<svg width="222" height="34" viewBox="0 0 222 34" fill="none" xmlns="http://www.w3.org/2000/svg">
<path d="M66.04 24.6533H60.064V13.8053L56.056 24.6533H51.376L47.392 13.8533V24.6533H41.44V7.70932H49.48L53.752 18.7733L58.024 7.70932H66.04V24.6533ZM94.5634 24.6533H88.5874V13.8053L84.5794 24.6533H79.8994L75.9154 13.8533V24.6533H69.9634V7.70932H78.0034L82.2754 18.7733L86.5474 7.70932H94.5634V24.6533ZM98.5109 7.70932H104.559V17.3333C104.559 18.0693 104.623 18.6853 104.751 19.1813C104.895 19.6773 105.191 20.1253 105.639 20.5253C106.343 21.1653 107.319 21.4853 108.567 21.4853C109.783 21.4853 110.735 21.1893 111.423 20.5973C112.159 19.9413 112.527 18.8213 112.527 17.2373V7.70932H118.575V17.0933C118.575 18.0053 118.551 18.7413 118.503 19.3013C118.455 19.8453 118.287 20.4773 117.999 21.1973C117.727 21.9173 117.319 22.5333 116.775 23.0453C115.207 24.5173 112.439 25.2533 108.471 25.2533C107.815 25.2533 107.263 25.2453 106.815 25.2293C106.367 25.2133 105.727 25.1493 104.895 25.0373C104.079 24.9413 103.375 24.7973 102.783 24.6053C102.191 24.3973 101.575 24.0853 100.935 23.6693C100.295 23.2533 99.7829 22.7573 99.3989 22.1813C98.8069 21.2853 98.5109 20.1093 98.5109 18.6533V7.70932ZM150.111 24.6533H143.967V18.1493H136.551V24.6533H130.455V7.70932H136.575V13.8773H143.967V7.70932H150.111V24.6533ZM172.106 24.6533H154.01V7.70932H171.89V11.5013H160.082V14.2853H171.002V18.1013H160.082V20.8133H172.106V24.6533ZM189.77 24.6533H175.01V7.70932H181.106V20.5253H189.77V24.6533ZM191.558 7.70932H203.174C203.83 7.70932 204.358 7.71732 204.758 7.73332C205.174 7.74932 205.654 7.80532 206.198 7.90132C206.758 7.99732 207.222 8.13332 207.59 8.30932C207.958 8.48532 208.318 8.74132 208.67 9.07732C209.038 9.39732 209.342 9.79732 209.582 10.2773C209.982 11.1093 210.182 12.0533 210.182 13.1093C210.182 15.1093 209.462 16.5893 208.022 17.5493C207.51 17.8853 206.878 18.1493 206.126 18.3413C205.374 18.5173 204.734 18.6213 204.206 18.6533C203.694 18.6693 203.022 18.6773 202.19 18.6773H197.606V24.6533H191.558V7.70932ZM197.606 11.5493V14.8613H201.566C202.254 14.8613 202.71 14.8293 202.934 14.7653C203.718 14.5573 204.11 14.0373 204.11 13.2053C204.11 12.9173 204.038 12.6293 203.894 12.3413C203.59 11.8133 202.966 11.5493 202.022 11.5493H197.606Z" fill="black"/>
<path d="M218.266 8.15343L217.048 6.0001H215.928V8.15343H215.333V3.1951H217.31C217.791 3.1951 218.176 3.32732 218.464 3.59176C218.757 3.85621 218.903 4.19148 218.903 4.59759C218.903 4.94232 218.795 5.23746 218.578 5.48301C218.365 5.72857 218.07 5.88912 217.692 5.96468L218.932 8.15343H218.266ZM215.928 3.71926V5.47593H217.203C217.557 5.47593 217.829 5.40037 218.018 5.24926C218.212 5.09815 218.308 4.88093 218.308 4.59759C218.308 4.31426 218.212 4.09704 218.018 3.94593C217.829 3.79482 217.557 3.71926 217.203 3.71926H215.928Z" fill="black"/>
<path fill-rule="evenodd" clip-rule="evenodd" d="M217 9.54221C219.148 9.54221 220.889 7.8011 220.889 5.65332C220.889 3.50555 219.148 1.76443 217 1.76443C214.852 1.76443 213.111 3.50555 213.111 5.65332C213.111 7.8011 214.852 9.54221 217 9.54221ZM217 10.6533C219.761 10.6533 222 8.41474 222 5.65332C222 2.8919 219.761 0.65332 217 0.65332C214.239 0.65332 212 2.8919 212 5.65332C212 8.41474 214.239 10.6533 217 10.6533Z" fill="black"/>
<path fill-rule="evenodd" clip-rule="evenodd" d="M29 14.6948L26.7839 14.6948V15.1533C26.7839 16.7665 26.4662 18.3638 25.8489 19.8542C25.2315 21.3445 24.3267 22.6987 23.1861 23.8394C22.0454 24.98 20.6912 25.8849 19.2009 26.5022C17.7105 27.1195 16.1131 27.4372 14.5 27.4372H14.0415V29.6533L12.2839 29.6533C10.6708 29.6533 9.07343 29.3356 7.58307 28.7183C6.09272 28.1009 4.73855 27.1961 3.59788 26.0554C2.45721 24.9148 1.55238 23.5606 0.935059 22.0702C0.317733 20.5799 0 18.9825 0 17.3694V15.6118H2.21607V15.1533C2.21607 13.5402 2.53381 11.9428 3.15113 10.4525C3.76846 8.96211 4.67328 7.60794 5.81395 6.46727C6.95462 5.3266 8.30879 4.42178 9.79915 3.80445C11.2895 3.18713 12.8869 2.86939 14.5 2.86939H14.9585V0.653321L16.7161 0.65332C18.3292 0.65332 19.9266 0.971053 21.4169 1.58838C22.9073 2.2057 24.2615 3.11053 25.4021 4.2512C26.5428 5.39187 27.4476 6.74604 28.0649 8.23639C28.6823 9.72675 29 11.3241 29 12.9372V14.6948ZM16.2576 5.80325V8.01933H14.5C13.5632 8.01933 12.6355 8.20386 11.7699 8.56237C10.9044 8.92089 10.118 9.44637 9.45551 10.1088C8.79305 10.7713 8.26757 11.5577 7.90905 12.4233C7.55053 13.2888 7.36601 14.2165 7.36601 15.1533L7.36601 16.9109H5.14993V17.3694C5.14993 18.3062 5.33446 19.2339 5.69298 20.0995C6.05149 20.965 6.57698 21.7514 7.23943 22.4139C7.90189 23.0763 8.68833 23.6018 9.55387 23.9603C10.4194 24.3189 11.3471 24.5034 12.2839 24.5034H12.7424V22.2873H14.5C15.4369 22.2873 16.3645 22.1028 17.2301 21.7443C18.0956 21.3857 18.882 20.8603 19.5445 20.1978C20.2069 19.5354 20.7324 18.7489 21.091 17.8834C21.4495 17.0178 21.634 16.0902 21.634 15.1533V13.3957H23.8501V12.9372C23.8501 12.0004 23.6655 11.0727 23.307 10.2072C22.9485 9.34165 22.423 8.5552 21.7606 7.89275C21.0981 7.2303 20.3117 6.70481 19.4461 6.3463C18.5806 5.98778 17.6529 5.80325 16.7161 5.80325H16.2576Z" fill="#74BE8B"/>
</svg>
