<svg width="74" height="57" viewBox="0 0 74 57" fill="none" xmlns="http://www.w3.org/2000/svg">
<g id="Mastercard-logo 1" clip-path="url(#clip0_114_5091)">
<path id="XMLID_1775_" d="M13.4115 56.8415V53.0586C13.4115 51.6116 12.5228 50.664 10.9971 50.664C10.2343 50.664 9.40487 50.9137 8.83462 51.7364C8.39026 51.046 7.75335 50.664 6.79799 50.664C6.16108 50.664 5.52417 50.855 5.02057 51.5454V50.7889H3.6875V56.8415H5.02057V53.4993C5.02057 52.4269 5.59082 51.9201 6.47953 51.9201C7.36824 51.9201 7.8126 52.4857 7.8126 53.4993V56.8415H9.14567V53.4993C9.14567 52.4269 9.78258 51.9201 10.6046 51.9201C11.4933 51.9201 11.9377 52.4857 11.9377 53.4993V56.8415H13.4115ZM33.1853 50.7889H31.0228V48.9599H29.6897V50.7889H28.4825V51.9862H29.6897V54.7627C29.6897 56.151 30.26 56.9663 31.7856 56.9663C32.3558 56.9663 32.9927 56.7753 33.4371 56.5256L33.052 55.3871C32.6669 55.6368 32.2225 55.7029 31.9041 55.7029C31.2672 55.7029 31.0154 55.321 31.0154 54.6966V51.9862H33.1779V50.7889H33.1853ZM44.5015 50.6567C43.7387 50.6567 43.2277 51.0386 42.9093 51.5381V50.7815H41.5762V56.8341H42.9093V53.4259C42.9093 52.4195 43.3536 51.8466 44.1831 51.8466C44.4349 51.8466 44.7533 51.9127 45.0126 51.9715L45.3977 50.7081C45.1311 50.6567 44.7534 50.6567 44.5015 50.6567ZM27.4013 51.2884C26.7644 50.8476 25.8756 50.6567 24.9203 50.6567C23.3947 50.6567 22.3801 51.4132 22.3801 52.6105C22.3801 53.6168 23.1429 54.1898 24.4759 54.3734L25.1128 54.4395C25.809 54.5644 26.1941 54.7554 26.1941 55.0712C26.1941 55.5119 25.6831 55.8278 24.7944 55.8278C23.9057 55.8278 23.2021 55.5119 22.7578 55.1961L22.1208 56.2024C22.817 56.7092 23.7724 56.959 24.7277 56.959C26.5052 56.959 27.5272 56.1363 27.5272 55.0051C27.5272 53.9327 26.6977 53.3671 25.4313 53.1761L24.7944 53.11C24.2241 53.0439 23.7798 52.919 23.7798 52.5444C23.7798 52.1037 24.2241 51.854 24.9277 51.854C25.6905 51.854 26.4533 52.1698 26.8384 52.3608L27.4013 51.2884ZM62.8682 50.6567C62.1054 50.6567 61.5944 51.0386 61.276 51.5381V50.7815H59.9429V56.8341H61.276V53.4259C61.276 52.4195 61.7203 51.8466 62.5498 51.8466C62.8016 51.8466 63.12 51.9127 63.3792 51.9715L63.7644 50.7228C63.5051 50.6567 63.1274 50.6567 62.8682 50.6567ZM45.8346 53.8152C45.8346 55.6442 47.1084 56.9663 49.0784 56.9663C49.9671 56.9663 50.604 56.7753 51.2409 56.2759L50.604 55.2034C50.093 55.5854 49.5894 55.769 49.0118 55.769C47.9305 55.769 47.1677 55.0125 47.1677 53.8152C47.1677 52.6766 47.9305 51.9201 49.0118 51.8613C49.582 51.8613 50.093 52.0523 50.604 52.4269L51.2409 51.3545C50.604 50.8476 49.9671 50.664 49.0784 50.664C47.1084 50.6567 45.8346 51.9862 45.8346 53.8152ZM58.1655 53.8152V50.7889H56.8324V51.5454C56.3881 50.9799 55.7511 50.664 54.9217 50.664C53.2035 50.664 51.8704 51.9862 51.8704 53.8152C51.8704 55.6442 53.2035 56.9663 54.9217 56.9663C55.8104 56.9663 56.4473 56.6505 56.8324 56.0849V56.8415H58.1655V53.8152ZM53.2702 53.8152C53.2702 52.7427 53.9663 51.8613 55.1142 51.8613C56.1955 51.8613 56.9583 52.684 56.9583 53.8152C56.9583 54.8876 56.1955 55.769 55.1142 55.769C53.9737 55.7029 53.2702 54.8802 53.2702 53.8152ZM37.3178 50.6567C35.5404 50.6567 34.2666 51.9201 34.2666 53.8078C34.2666 55.7029 35.5404 56.959 37.3845 56.959C38.2732 56.959 39.1619 56.7092 39.8654 56.1363L39.2285 55.1887C38.7175 55.5707 38.0806 55.8204 37.4511 55.8204C36.6216 55.8204 35.7996 55.4385 35.607 54.3734H40.1172C40.1172 54.1824 40.1172 54.0576 40.1172 53.8666C40.1765 51.9201 39.0286 50.6567 37.3178 50.6567ZM37.3178 51.7952C38.1473 51.7952 38.7175 52.302 38.8434 53.2422H35.6663C35.7922 52.4269 36.3624 51.7952 37.3178 51.7952ZM70.4371 53.8152V48.3943H69.104V51.5454C68.6597 50.9799 68.0228 50.664 67.1933 50.664C65.4751 50.664 64.1421 51.9862 64.1421 53.8152C64.1421 55.6442 65.4751 56.9663 67.1933 56.9663C68.082 56.9663 68.7189 56.6505 69.104 56.0849V56.8415H70.4371V53.8152ZM65.5418 53.8152C65.5418 52.7427 66.2379 51.8613 67.3859 51.8613C68.4671 51.8613 69.2299 52.684 69.2299 53.8152C69.2299 54.8876 68.4671 55.769 67.3859 55.769C66.2379 55.7029 65.5418 54.8802 65.5418 53.8152ZM20.9137 53.8152V50.7889H19.5806V51.5454C19.1363 50.9799 18.4993 50.664 17.6699 50.664C15.9517 50.664 14.6186 51.9862 14.6186 53.8152C14.6186 55.6442 15.9517 56.9663 17.6699 56.9663C18.5586 56.9663 19.1955 56.6505 19.5806 56.0849V56.8415H20.9137V53.8152ZM15.9591 53.8152C15.9591 52.7427 16.6553 51.8613 17.8032 51.8613C18.8845 51.8613 19.6473 52.684 19.6473 53.8152C19.6473 54.8876 18.8845 55.769 17.8032 55.769C16.6553 55.7029 15.9591 54.8802 15.9591 53.8152Z" fill="white"/>
<g id="Group">
<path id="rect19" d="M46.9827 4.85522H26.957V40.539H46.9827V4.85522Z" fill="#FF5A00"/>
<path id="XMLID_330_" d="M28.2906 22.6972C28.2906 15.4473 31.727 9.01276 37 4.85528C33.1193 1.82899 28.224 0 22.8843 0C10.235 0 0 10.1513 0 22.6972C0 35.243 10.235 45.3943 22.8843 45.3943C28.224 45.3943 33.1193 43.5653 37 40.5391C31.7196 36.4403 28.2906 29.947 28.2906 22.6972Z" fill="#EB001B"/>
<path id="path22" d="M74 22.6972C74 35.243 63.765 45.3943 51.1157 45.3943C45.776 45.3943 40.8807 43.5653 37 40.5391C42.3397 36.3742 45.7094 29.947 45.7094 22.6972C45.7094 15.4473 42.273 9.01276 37 4.85528C40.8733 1.82899 45.7686 0 51.1083 0C63.765 0 74 10.2174 74 22.6972Z" fill="#F79E1B"/>
</g>
</g>
<defs>
<clipPath id="clip0_114_5091">
<rect width="74" height="57" fill="white"/>
</clipPath>
</defs>
</svg>
