<svg width="116" height="35" viewBox="0 0 116 35" fill="none" xmlns="http://www.w3.org/2000/svg">
<g id="Mir-logo.SVG 1">
<path id="Vector" d="M8.99023 3.79167H18.5602C19.4302 3.79167 22.0402 3.5 23.2002 7.58333C24.0702 10.2083 25.2302 14.2917 26.9702 20.4167H27.5502C29.2902 14 30.7402 9.625 31.3202 7.58333C32.4802 3.5 35.3802 3.79167 36.5402 3.79167H45.5302V31.7917H36.2502V15.1667H35.6702L30.7402 31.7917H23.7802L18.8502 15.1667H17.9802V31.7917H8.99023M49.3002 3.79167H58.5802V20.4167H59.4502L65.5402 6.70833C66.7002 4.08333 69.3102 3.79167 69.3102 3.79167H78.0102V31.7917H68.7302V15.1667H68.1502L62.0602 28.875C60.9002 31.5 58.0002 31.7917 58.0002 31.7917H49.3002M90.4802 23.3333V31.7917H81.7802V17.2083H110.2C109.04 20.7083 104.98 23.3333 100.34 23.3333" fill="white"/>
<path id="Vector_2" d="M110.78 15.4584C111.94 10.2084 108.46 3.79175 100.92 3.79175H81.2002C81.7802 9.91675 87.0002 15.4584 92.5102 15.4584" fill="url(#paint0_linear_114_5099)"/>
</g>
<defs>
<linearGradient id="paint0_linear_114_5099" x1="107.3" y1="8.17259e-05" x2="84.1002" y2="8.17259e-05" gradientUnits="userSpaceOnUse">
<stop stop-color="#8CB2FF"/>
<stop offset="1" stop-color="#02AEFF"/>
</linearGradient>
</defs>
</svg>
