<svg width="96" height="31" viewBox="0 0 96 31" fill="none" xmlns="http://www.w3.org/2000/svg">
<g id="Visa_2021 1" clip-path="url(#clip0_114_5097)">
<path id="Vector" d="M62.5141 0.0478516C55.7048 0.0478516 49.6194 3.5586 49.6194 10.0435C49.6194 17.4813 60.4117 17.995 60.4117 21.732C60.4117 23.3055 58.5992 24.7138 55.5023 24.7138C51.1083 24.7138 47.8242 22.746 47.8242 22.746L46.4187 29.291C46.4187 29.291 50.2021 30.9533 55.2248 30.9533C62.6696 30.9533 68.5285 27.2707 68.5285 20.6741C68.5285 12.8143 57.6911 12.3159 57.6911 8.84812C57.6911 7.61549 59.1791 6.26542 62.2664 6.26542C65.7503 6.26542 68.5919 7.69664 68.5919 7.69664L69.9675 1.37596C69.9675 1.37596 66.8744 0.0478516 62.5131 0.0478516H62.5141ZM0.212972 0.525245L0.0478516 1.47908C0.0478516 1.47908 2.91249 2.00039 5.49297 3.04111C8.81553 4.23363 9.05169 4.92872 9.61137 7.08463L15.7083 30.4607H23.8818L36.4731 0.525245H28.3189L20.228 20.8784L16.9266 3.62544C16.6242 1.65094 15.0901 0.52429 13.2133 0.52429H0.213932L0.212972 0.525245ZM39.7525 0.525245L33.356 30.4607H41.132L47.5055 0.525245H39.7525ZM83.1215 0.525245C81.2466 0.525245 80.253 1.52395 79.5243 3.26835L68.132 30.4607H76.2863L77.8635 25.9283H87.7976L88.7567 30.4607H95.9519L89.6754 0.525245H83.1215ZM84.1823 8.61324L86.5995 19.8463H80.1243L84.1832 8.61324H84.1823Z" fill="white"/>
</g>
<defs>
<clipPath id="clip0_114_5097">
<rect width="96" height="31" fill="white"/>
</clipPath>
</defs>
</svg>
